/* XPM */
static char *exit[] = {
/* width height ncolors chars_per_pixel */
"32 32 5 1",
/* colors */
"` c #000000",
"a c #008080",
"b c #c0c0c0",
"c c #FFFFFF",
"d c #0000FF",
/* pixels */
"bbbbbbbbbbb````````````````bbbbb",
"bbbbbbbbbbb`ccccccccccc`c``cbbbb",
"bbbbbbbbbbb`cccccccccc`c`a`cbbbb",
"bbbbbbbbbbb`ccccccccc`c`aa`cbbbb",
"bbbbbbbb``b`cccccccc`c`aaa`cbbbb",
"bbbbbbbb`a``ccccccc`c`aaaa`cbbbb",
"bbbbbbbb``a`cccccc`c`aaaaa`cbbbb",
"bbbbbbbb```a`ccccc```aaaaa`cbbbb",
"bbbbbbbb````a`cccc```aaaaa`cbbbb",
"``````````c``a`ccc```aaaaa`cbbbb",
"```````````c``a`cc```aaaaa`cbbbb",
"```cccccccccc``a`c```aaaaa`cbbbb",
"``````````````aa`c```aaaaa`cbbbb",
"`aaaaaaaa````aa`cc```aaaaa`cbbbb",
"````````````aa`ccc```a``aa`cbbbb",
"bbbbbbbb```aa`cccc````c`aa`cbbbb",
"bbbbbbbb``aa`ccccc````c`aa`cbbbb",
"bbbbbbbb`aa`cccccc```a``aa`cbbbb",
"bbbbbbbb`a``cccccc```aaaaa`cbbbb",
"bbbbbbbb``b`cccccc```aaaaa`cbbbb",
"bbbbbbbb`bb`cccccc```aaaaa`cbbbb",
"bbbbbbbbbbb``````````aaaaa`cbbbb",
"bbbbbbbbbbb``````````aaaaa`cbbbb",
"bbbbbbbbbbb``````````aaaaa`cbbbb",
"`````````````````````aaaaa``````",
"`dddddddd`d`d`d`d````aaaa`ddddd`",
"`ddddddd`d`d`d`d`d```aaa`dddddd`",
"`dddddd`d`d`d`d`d````aa`ddddddd`",
"`ddddd`d`d`d`d`d`d```a`dddddddd`",
"`dddd`d`d`d`d`d`d`````ddddddddd`",
"`ddd`d`d`d`d`d`d`d```dddddddddd`",
"````````````````````````````````"
};
