/* XPM */
static char * input_xpm[] = {
"24 24 4 1",
" 	s None	c None",
".	c blue",
"X	c black",
"o	c green",
"                        ",
"                        ",
"                        ",
"                        ",
"  .......               ",
"  .     .X              ",
"  . X X .X   ooX        ",
"  . X   .X ooooX        ",
"  .     .ooooooX        ",
"  .    ooooooooooooooo  ",
"  . X ooooooooooooooooX ",
"  .    oooooooooooooooX ",
"  .   X .ooooooXXXXXXXX ",
"  . X   .XXooooX        ",
"  . X   .X XXooX        ",
"  .   X .X   XXX        ",
"  .     .X              ",
"  .......X              ",
"   XXXXXXX              ",
"                        ",
"                        ",
"                        ",
"                        ",
"                        "};
