/* XPM */
static char *write[] = {
/* width height ncolors chars_per_pixel */
"32 32 8 1",
/* colors */
"` c #000000",
"a c #008080",
"b c #FF00FF",
"c c #808080",
"d c #000080",
"e c #FFFFFF",
"f c #0000FF",
"U c None s None",
/* pixels */
"UUUUUUUUUUUUUUUUUUUUUUUUUUUUUUUU",
"UUUUUUUUUUUUUUUUUUUUUUUUUUU``UUU",
"UUUUUUUUUUUUUUUUUUUUUUUUUU`b`UUU",
"UUUUUUUUUUUUUUUUUUUUUUUUU`b`UUUU",
"UUUUUUUUUUUUUUUUUUUUUUUU`b`UUUUU",
"UUUUUUUUUUUUUUUUUUUUUUU`b`UUUUUU",
"UUUUUUUUUUUUUUUUUUUUUU`b`UUUUUUU",
"UUUUUUUUUUUUUUUUUU````b`UUUUUUUU",
"UUUUUUUUU``UUUUUU`ee`b```UUUUUUU",
"UUUUUUUUUUU```ee`ee`b`eee`UUUUUU",
"UUUUUUUU`e``ee``ee`b`eeeee``UUUU",
"UUU``eee``e`ee`ee`b`eeeeeeee````",
"UUUUU```eec`ce`e`b``eeeeeeeee`ff",
"UU`e``eeeeeeee``b`e`eeeeeeeee`df",
"UU``e`eeeeeecc``````eeeeeeeee`ff",
"U`eec`ceeecce``eeeeeeeeeeeeec`ff",
"U``eeeeeccee`b````eeeeee``cc``ff",
"U`e`eecceeee``eeee``````UU```f`f",
"Uf`e`ceeeee`eeeeeeeeee`UUU``f`f`",
"UUf`e`eeeeeeeeeeeaaeeee`UUU````U",
"UUUf`e`eeeeeeeeaaeeeeeee`UUUUUUU",
"UUUUf`e`eeeeeaaeeeeeaaeee`UUUUUU",
"UUUUUf`e`eeaaeeeeeaaeeeeee`UUUUU",
"UUUUUUf`e`eeeeeeaaeeeeee```UUUUU",
"UUUUUUUf`e`eeeaaeeeeee``ee`UUUUU",
"UUUUUUUUf`e`eeeeeeee``ee``fUUUUU",
"UUUUUUUUUf`e`eeeee``ee``fUUUUUUU",
"UUUUUUUUUUf`e`ee``ee``fUUUUUUUUU",
"UUUUUUUUUUUf`e``ee``fUUUUUUUUUUU",
"UUUUUUUUUUUUf`ee``fUUUUUUUUUUUUU",
"UUUUUUUUUUUUUf``fUUUUUUUUUUUUUUU",
"UUUUUUUUUUUUUUUUUUUUUUUUUUUUUUUU"
};
