/* XPM */
static char *iosim[] = {
/* width height ncolors chars_per_pixel */
"32 32 5 1",
/* colors */
"` c #000000",
"a c #808080",
"b c #800080",
"c c #FFFFFF",
"d c #0000FF",
/* pixels */
"````````````````````````````````",
"`ccccccccccccccccccccccccccccca`",
"`caaaaaaaaaaaaaaaaaaaaaaaaaaaac`",
"`cacccccccccccccccccccccccccaac`",
"`cacaaaaaaaaaaaccaaaaaaaaaaacac`",
"`cacabbbbbaaaaaccabbbbbaaaaacac`",
"`cacaaaaaaaaaaaccaaaaaaaaaaacac`",
"`cacabbbbbaaaaaccabbbbbaaaaacac`",
"`cacaaaaaaaaaaaccaaaaaaaaaaacac`",
"`cacaaaaaaaaaaaccabbbbbaaaaacac`",
"`cacadddddaddaaccaaaaaaaaaaacac`",
"`cacaaaaaaaaaaaccaaaaaaaaaaacac`",
"`cacadddddaddaaccadddddaddaacac`",
"`cacaaaaaaaaaaaccaaaaaaaaaaacac`",
"`cacadddddaddaaccadddddaddaacac`",
"`cacaaaaaaaaaaaccaaaaaaaaaaacac`",
"`cacadddddaddaaccadddddaddaacac`",
"`cacaaaaaaaaaaaccaaaaaaaaaaacac`",
"`cacadddddaddaaccaaaaaaaaaaacac`",
"`cacaaaaaaaaaaaccaaaaaaaaaaacac`",
"`cacadddddaddaaccaaaaaaaaaaacac`",
"`cacaaaaaaaaaaaccaaaaaaaaaaacac`",
"`cacaaaaaaaaaaaccaaaaaaaaaaacac`",
"`cacaaaaaaaaaaaccaaaaaaaaaaacac`",
"`caacccccccccccccccccccccccccac`",
"`caaaaaaaaaaaaaaaaaaaaaaaaaaaac`",
"`caccccaccccaccccaccccaccccccac`",
"`cacaacacaacacaacacaacacaaaacac`",
"`caccccaccccaccccaccccaccccccac`",
"`caaaaaaaaaaaaaaaaaaaaaaaaaaaac`",
"`accccccccccccccccccccccccccccc`",
"````````````````````````````````"
};
