/* XPM */
static char * output_xpm[] = {
"24 24 4 1",
" 	c None s None",
".	c blue",
"X	c black",
"o	c red",
"                        ",
"                        ",
"                        ",
"                        ",
"  .......               ",
"  .     .X              ",
"  . X X .X   oo         ",
"  . X   .X   oooo       ",
"  .     .X   oooooo     ",
"  .    oooooooooooooo   ",
"  . X XoooooooooooooooX ",
"  .    ooooooooooooooXX ",
"  .   X XXXXXooooooXX   ",
"  . X   .X   ooooXX     ",
"  . X   .X   ooXX       ",
"  .   X .X   XX         ",
"  .     .X              ",
"  .......X              ",
"   XXXXXXX              ",
"                        ",
"                        ",
"                        ",
"                        ",
"                        "};
