/* XPM */
static char * Qssospe_xpm[] = {
"32 32 3 1",
" 	s None	c None",
".	c white",
"X	c red",
"       ..................       ",
"      ....................      ",
"     ......................     ",
"    .....XXXXXXXXXXXXXX.....    ",
"   .....XXXXXXXXXXXXXXXX.....   ",
"  .....XXXXXXXXXXXXXXXXXX.....  ",
" .....XXXXXXXXXXXXXXXXXXXX..... ",
".....XXXXXXXXXXXXXXXXXXXXXX.....",
"....XXXXXXXXXXXXXXXXXXXXXXXX....",
"...XXXXXXXXXXXXXXXXXXXXXXXXXX...",
"...XXXXXXXXXXXXXXXXXXXXXXXXXX...",
"...XXXXXXXXXXXXXXXXXXXXXXXXXX...",
"...XX....X......X....X.....XX...",
"...X..XX..XX..XX..XX....XX..X...",
"...X..XXXXXX..XX..XX....XX..X...",
"...X..XXXXXX..XX..XX....XX..X...",
"...XX....XXX..XX..XX.......XX...",
"...XXXXX..XX..XX..XX....XXXXX...",
"...XXXXX..XX..XX..XX....XXXXX...",
"...X..XX..XX..XX..XX....XXXXX...",
"...XX....XXX..XXX....X..XXXXX...",
"...XXXXXXXXXXXXXXXXXXXXXXXXXX...",
"...XXXXXXXXXXXXXXXXXXXXXXXXXX...",
"....XXXXXXXXXXXXXXXXXXXXXXXX....",
".....XXXXXXXXXXXXXXXXXXXXXX.....",
" .....XXXXXXXXXXXXXXXXXXXX..... ",
"  .....XXXXXXXXXXXXXXXXXX.....  ",
"   .....XXXXXXXXXXXXXXXX.....   ",
"    .....XXXXXXXXXXXXXX.....    ",
"     ......................     ",
"      ....................      ",
"       ..................       "};
