/* XPM */
static char * Qsstart_xpm[] = {
"32 32 8 1",
" 	s None	c None",
".	c black",
"X	c white",
"o	c mediumturquoise",
"O	c grey50",
"+	c red",
"@	c green",
"#	c yellow",
"                                ",
"                     ...        ",
"     ...          .  .X.  .     ",
"   ...o...       ....XXX..X.    ",
"   .ooooo.      ..XXXXXXXXX..   ",
"  ..o.OOo..      .XXX...XXX.    ",
"  .oo. Ooo.      .XX.OO .XX.    ",
"  ..oo.oo..    ..XX.OO   .XX..  ",
"   .ooooo....  .XXX.O    .XXX.  ",
"   ...o....+.  ...X.OO   .X...  ",
"     ...+.+++..+..XX.OO .XX.    ",
"     ..++++++++++.XXX...XXX.    ",
"      .+++...+++..XXXXXXXXXX.   ",
"      .++.OO .++.....XXX....    ",
"    ..++.OO   .+++. .X....@...  ",
"    .+++.O    .+++. .. .@@@@@.  ",
"    ...+.OO   .+...   ..@.OO@.. ",
"      .++.OO .++.     .@@. O@@. ",
"      .+++...+++.     ..@@.@@.  ",
"     .+++++++++++.     .@@@@@.  ",
"     ..+..++.....      ...@...  ",
"   ...#...++.  .         ...    ",
"   .#####....          .     .  ",
"  ..#.OO#..            X.....X  ",
"  .##. O##.             XXXXX   ",
"  ..##.##..           .       . ",
"   .#####.            X.......X ",
"   ...#...             XXXXXXX  ",
"     ...                        ",
"                                ",
"                                ",
"                                "};
