/* XPM */
static char *trash[] = {
/* width height ncolors chars_per_pixel */
"32 32 3 1",
/* colors */
"` c #000000",
"a c #808080",
"b c #FFFFFF",
/* pixels */
"````````````````````````````````",
"````````````````````````````````",
"``````````````bb````````````````",
"`````````````bbab```````````````",
"``````````bbbbbbbb``````````````",
"``````baabbbbbbbbaaabb``````````",
"``````````bbbbbbbb``````````````",
"```````bbbaaaaaaabbb````````````",
"```````baabbbbbbbaaabb``````````",
"```````ba`bbbb`bbaa`bb``````````",
"```````bbb`bbba`baba`b``````````",
"```````bbb`bbba`baba`b``````````",
"```````bbb`bbba`baba`b``````````",
"```````bbb`bbba`baba`b``````````",
"```````bbb`bbba`baba`b``````````",
"```````bbb`bbba`baba`b``````````",
"```````bbb`bbba`baba`b``````````",
"```````bbb`bbba`baba`b``````````",
"```````bbb`bbba`baba`b``````````",
"```````bbb`bbba`baba`b``````````",
"```````bbb`bbba`baba`b``````````",
"```````bbb`bbba`baba`b``````````",
"```````bbb`bbba`baba`b``````````",
"```````bbb`bbba`baba`b``````````",
"```````bbb`bbba`baba`b``````````",
"```````bbb`bbba`baba`b``````````",
"```````ba`bbbb`bbaa`bb``````````",
"```````babbbaaaaabbbb```````````",
"``````````bbbbbbbbb`````````````",
"````````````````````````````````",
"````````````````````````````````",
"````````````````````````````````"
};
