/* XPM */
static char * xncPROG_xpm[] = {
"24 24 5 1",
" 	s None	c None",
".	c red",
"X	c yellow",
"o	c black",
"O	c white",
"..............          ",
".XXXXXXXXXXXX..         ",
".X....XXXXXXX..         ",
".XXXXXXXXXXXX..         ",
".XX........XX..         ",
".XXXXXXXXXXXX..         ",
".X.....XXXXXX..         ",
".XXXXXXXXXXXX..oooo     ",
"...............OOOoo    ",
" ..............OOOoo    ",
"     oOOOOOOOOOOOOoo    ",
"     oOOoooooooOOOoo    ",
"     oOOOOOOOOOOOOoo    ",
"     oOoooooOOooOOoo    ",
"     oOOOOOOOOOOOOooooo ",
"     oooooooooooooooOOoo",
"      ooooooooooooooOOoo",
"         oOOOOOOOOOOOOoo",
"         oOOooooooooOOoo",
"         oOOOOOOOOOOOOoo",
"         oOoooooOOooOOoo",
"         oOOOOOOOOOOOOoo",
"         ooooooooooooooo",
"          oooooooooooooo"};
