/* XPM */
static char * ame_logo_xpm[] = {
"57 38 14 1",
" 	c None",
".	c #EBAFB1",
"+	c #CC3135",
"@	c #C71D22",
"#	c #E2898B",
"$	c #C00005",
"%	c #DB6E71",
"&	c #D6595C",
"*	c #C30D12",
"=	c #D14549",
"-	c #EBB0B2",
";	c #EEBABC",
">	c #E49193",
",	c #DC7073",
"                           ..                            ",
"                           +@                            ",
"                          #$$#                           ",
"                          @$$@                           ",
"                         %$$$$&                          ",
"                        .*$$$$*.                         ",
"                        =$$$$$$=                         ",
"                       -$$$$$$$$#                        ",
"                       +$$$$$$$$@                        ",
"                      #$$$$$$$$$$%                       ",
"                      @&$$$$$$$$$*                       ",
"                     &# @$$$$$$$$$=                      ",
"                    ;+  #$$$$$$$$$$#                     ",
"                    +.   +$$$$$$$$$+                     ",
"                   >=    .$$$$$$$$$$%                    ",
"                   @.     %$$$$$$$$$$                    ",
"                  ,$%      *$$$$$$$$$=                   ",
"                  *$*      #$$$$$$$$$$.                  ",
"                 =$$$&      +$$$$$$$$$+                  ",
"                .$$$$$.     .*$$$$$$$$$%                 ",
"                +$$$$$+      &$$$$$$$$$*                 ",
"               #$$$$$$$#      *$$$$$$$$$=                ",
"               @$$$$$$$@      %$$$$$$$$$$.               ",
"              &$$$$$$$$$%     .$$$$$$$$$$@               ",
"             .*$$$$$$$$$$     &=*$$$$$$$$$#              ",
"             =#+$$$$$$$$$=   #= &$$$$$$$$$*              ",
"            #= #$$$$$$$$$$#  =. .*$$$$$$$$$&             ",
"            +.  =$$$$$$$$$+ #&   %$$$$$$$$$$.            ",
"           %%   .*$$$$$$$$$==     @$$$$$$$$$+            ",
"           +     &$$$$$$$$$$#     #$$$$$$$$$$#           ",
"          =#      @$$$$$$$$=       @$$$$$$$$$@           ",
"         .*.      #$$$$$$$*.       &$$$$$$$$$$%          ",
"         @$.       +$$$$$$=        &$$$$$$$$$$$.         ",
"        =$$.       .$$$$$*         @$$$$$$$$$$$@.        ",
"       +$$$=        &$$$$%        #$$$$$$$$$$$$$*#       ",
"     #*$$$$$%        *$$@         @$$$$$$$$$$$$$$$=.     ",
"  .%@$$$$$$$$=.      %$$#      .%*$$$$$$$$$$$$$$$$$$=#.  ",
"@@*$$$$$$$$$$$*@.     *=      #++++++++++++++++++++@$$**="};
