/* XPM */
static char * C_CANC_XPM[] = {
"24 24 3 1",
/* colors */
" 	c None",
".	c red3",
"X	c red4",
/* pixels */
"                        ",
"                        ",
"    .XX           ..    ",
"   ...XX         ....   ",
"  .....XX       .....X  ",
"   .....XX     .....XX  ",
"    .....XX   .....XX   ",
"     .....XX .....XX    ",
"      .....X.....XX     ",
"       .........XX      ",
"        .......XX       ",
"         .....XX        ",
"        .......XX       ",
"       .........XX      ",
"      .....X.....XX     ",
"     .....XX .....XX    ",
"    .....XX   .....XX   ",
"   .....XX     .....XX  ",
"  .....XX       .....X  ",
"   ...XX         ....   ",
"    .XX           ..    ",
"                        ",
"                        ",
"                        "};
