/* XPM */
static char * arrow7c_xpm[] = {
"32 32 4 1",
"`	c black",
"a	c grey",
"b	c grey50",
"c	c white",
"````````````````````````````````",
"`ccccccccccccccccccccccccccccca`",
"`caaaaaaaaaaaaa``aaaaaaaaaaaaab`",
"`caaaaaaaaaaaaa`c`aaaaaaaaaaaab`",
"`caaaaaaaaaaaaa`cc`aaaaaaaaaaab`",
"`caaaaaaaaaaaaa`cac`aaaaaaaaaab`",
"`caaaaaaaaaaaaa`caac`aaaaaaaaab`",
"`caaaaaaaaaaaaa`caaac`aaaaaaaab`",
"`caaaaaaaaaaaaa`caaaac`aaaaaaab`",
"`caaaaaaaaaaaaa`caaaaac`aaaaaab`",
"`caa````````````caaaaaac`aaaaab`",
"`ca`cccccccccccccaaaaaaac`aaaab`",
"`ca`caaaaaaaaaaaaaaaaaaaac`aaab`",
"`ca`caaaaaaaaaaaaaaaaaaaaac`aab`",
"`ca`caaaaaaaaaaaaaaaaaaaaaac`ab`",
"`ca`caaaaaaaaaaaaaaaaaaaaaaac`b`",
"`ca`caaaaaaaaaaaaaaaaaaaaaabb`b`",
"`ca`caaaaaaaaaaaaaaaaaaaaabb`ab`",
"`ca`caaaaaaaaaaaaaaaaaaaabb`aab`",
"`ca`caaaaaaaaaaaaaaaaaaabb`aaab`",
"`ca`caaaaaaaaaaaaaaaaaabb`aaaab`",
"`ca`abbbbbbbbbbbbaaaaabb`aaaaab`",
"`caa````````````caaaabb`aaaaaab`",
"`caaaaaaaaaaaaa`caaabb`aaaaaaab`",
"`caaaaaaaaaaaaa`caabb`aaaaaaaab`",
"`caaaaaaaaaaaaa`cabb`aaaaaaaaab`",
"`caaaaaaaaaaaaa`cbb`aaaaaaaaaab`",
"`caaaaaaaaaaaaa`cb`aaaaaaaaaaab`",
"`caaaaaaaaaaaaa`b`aaaaaaaaaaaab`",
"`caaaaaaaaaaaaa``aaaaaaaaaaaaab`",
"`abbbbbbbbbbbbbbbbbbbbbbbbbbbbb`",
"````````````````````````````````"
};
