/* XPM */
static char * trace5_xpm[] = {
"32 32 5 1",
" 	c None",
".	c black",
"X	c white",
"o	c grey50",
"O	c blue",
"                                ",
"                                ",
"                                ",
"                                ",
"                                ",
"                                ",
"                                ",
"                                ",
"          ............          ",
"      ....XXXXXXXXXXXX....      ",
"   ...XXXXXoXoXoXoXoXoXXXX...   ",
"  .XXXXXXXX..........XXXXXXXX.  ",
" .XXXoX...XXX......XXX...oXXXX. ",
".XXXoX.......XXXXXX.......oXXXX.",
".XXXo.........X..X.........oXXX.",
".XXXo........XXXXXX........oXXX.",
"X.XXX.....XXX......XXX.....XXX.o",
".X.XXXXXXXX..........XXXXXXXX.o.",
".XX...XXXX............XXXX...oo.",
".XXXX.....XXXXXXXXXXXX.....oooo.",
" .XXX.O.O..............O.O.ooo. ",
" .XXXX....O..OO.OOO.OO....oooo. ",
"  ..XXXXX..O.OO........ooooo..  ",
"    ..XXX.OO.O.ooooooooooo..    ",
"      ....OO..oooooXXX....      ",
"       .O.O...........          ",
"      .OO..ooooo                ",
"     ..OO.ooooo                 ",
"     O.O.ooooo                  ",
"     O..ooooo                   ",
"     O.ooooo                    ",
"    o.ooooo                     "};
