/* XPM */
static char * Pplc_halt_xpm[] = {
"32 32 8 1",
" 	c white",
".	c grey50",
"X	c black",
"o	c red4",
"O	c red",
"+	c gold4",
"@	c green4",
"a	c None",
"aaaaaaaaa...............aaaaaaaa",
"aaaaaaaa..             .Xaaaaaaa",
"aaaaaaa..             ..Xaaaaaaa",
"aaaaaaa.             ...Xaaaaaaa",
"aaa.....   .XXXXX.   ...X....aaa",
"aaa.   .  .X    .X.  ..X...XXaaa",
"aaa..  . .XXXXX...X. .X.  X.Xaaa",
"aaaa.. . X XoOOX..X. .X. X.Xaaaa",
"aaaaa... X XOOOOX.X. .X. X.Xaaaa",
"aaaaaa.. X XOOOOX.X. .X.X.Xaaaaa",
"aaaaaaa.  XXoOOOXX.. .X.XXaaaaaa",
"aaaaaaa.    .oooX... ..XXaaaaaaa",
"aaaaaaa.             ...Xaaaaaaa",
"aaa.....   .XXXXX.   ...X....aaa",
"aaa.   .  .X    .X.  ..X...XXaaa",
"aaaa.  . .XXXXX...X. .X.  X.Xaaa",
"aaaaa. . X.X+++X..X. .X. X.Xaaaa",
"aaaaa... X.X++++X.X. .X. X.Xaaaa",
"aaaaaa.. X.X++++X.X. .X.X.Xaaaaa",
"aaaaaaa.  XX++++XX.. .X.XXaaaaaa",
"aaaaaaa.    .+++X... ..XXXaaaaaa",
"aaaaaaa.             ...Xaaaaaaa",
"aaa.....   .XXXXX.   ...X....aaa",
"aaa.   .  .X    .X.  ..X...XXaaa",
"aaa..  . .XXXXX...X. .X.  X.Xaaa",
"aaaa.... X.X@@@X..X. .X. X.Xaaaa",
"aaaaa... X.X@@@@X.X. .X. X.Xaaaa",
"aaaaaa.. X.X@@@@X.X. .X.X.Xaaaaa",
"aaaaaaa.  XX@@@@XX.. .X.XXaaaaaa",
"aaaaaaa.    .@@@X... .XXXaaaaaaa",
"aaaaaaa. ........... .Xaaaaaaaaa",
"aaaaaaaaXXXXXXXXXXXXXXaaaaaaaaaa"};
