/* XPM */
static char * Pplc_zoomin_xpm[] = {
"32 32 9 1",
" 	c lightcyan",
".	c grey50",
"X	c grey",
"o	c cyan4",
"O	c cyan",
"+	c white",
"@	c black",
"#	c blue",
"$	c blue4",
"                                ",
"       ......X                  ",
"     ..oooooXXXX                ",
"    oooO+O+OooXXX               ",
"  .@o+O+O+O+O+oXX+              ",
" .@o+O+O+O+O+O+o+++             ",
" .@oO+O+++O+O+O+o++             ",
".X@o+O+++O+O+O+O+o+X            ",
".X@oO+++++O+O+O+Oo+X            ",
".+@o+O+++O+O+O+O+OoX            ",
".+@oO+++++O+O+O+O+oX            ",
".+@o+O+++++O+O+O+OoX            ",
".++@o+O+++O+O+O+O+oX            ",
".++@oO+O+++O+O+O+OoX            ",
" .++@oO+O+++O+O+O+o             ",
" .++X@oO+O+O+O+O+Oo             ",
"  .XXX@oO+O+O+O+Oo@             ",
"   .XXX@@o+O+O+O@@@             ",
"    .XXXX@@@@@@@@@..            ",
"     ..X......@@.+X..           ",
"                .X+X##          ",
"                 .X+O##         ",
"         @        $O+O##        ",
"         @         $O+O##       ",
"         @          $O+O##      ",
"         @           $O+O##     ",
"     @@@@@@@@@        $O+O##    ",
"         @             $O+O##   ",
"         @              $O+O#   ",
"         @               $O+#   ",
"         @                $     ",
"                                "};
