/* XPM */
static char * arrow7b_xpm[] = {
"32 32 4 1",
"`	c black",
"a	c grey",
"b	c grey50",
"c	c white",
"````````````````````````````````",
"`ccccccccccccccccccccccccccccca`",
"`caaaaaaaaaaaaa``aaaaaaaaaaaaab`",
"`caaaaaaaaaaaa`c`aaaaaaaaaaaaab`",
"`caaaaaaaaaaa`cc`aaaaaaaaaaaaab`",
"`caaaaaaaaaa`ccb`aaaaaaaaaaaaab`",
"`caaaaaaaaa`ccab`aaaaaaaaaaaaab`",
"`caaaaaaaa`ccaab`aaaaaaaaaaaaab`",
"`caaaaaaa`ccaaab`aaaaaaaaaaaaab`",
"`caaaaaa`ccaaaab`aaaaaaaaaaaaab`",
"`caaaaa`ccaaaaab````````````aab`",
"`caaaa`ccaaaaaabcccccccccccb`ab`",
"`caaa`ccaaaaaaaaaaaaaaaaaaab`ab`",
"`caa`ccaaaaaaaaaaaaaaaaaaaab`ab`",
"`ca`ccaaaaaaaaaaaaaaaaaaaaab`ab`",
"`c`ccaaaaaaaaaaaaaaaaaaaaaab`ab`",
"`c`bbaaaaaaaaaaaaaaaaaaaaaab`ab`",
"`ca`bbaaaaaaaaaaaaaaaaaaaaab`ab`",
"`caa`bbaaaaaaaaaaaaaaaaaaaab`ab`",
"`caaa`bbaaaaaaaaaaaaaaaaaaab`ab`",
"`caaaa`bbaaaaaaaaaaaaaaaaaab`ab`",
"`caaaaa`bbaaaaabbbbbbbbbbbbb`ab`",
"`caaaaaa`bbaaaab````````````aab`",
"`caaaaaaa`bbaaab`aaaaaaaaaaaaab`",
"`caaaaaaaa`bbaab`aaaaaaaaaaaaab`",
"`caaaaaaaaa`bbab`aaaaaaaaaaaaab`",
"`caaaaaaaaaa`bbb`aaaaaaaaaaaaab`",
"`caaaaaaaaaaa`bb`aaaaaaaaaaaaab`",
"`caaaaaaaaaaaa`b`aaaaaaaaaaaaab`",
"`caaaaaaaaaaaaa``aaaaaaaaaaaaab`",
"`abbbbbbbbbbbbbbbbbbbbbbbbbbbbb`",
"````````````````````````````````"
};
