/* XPM */
static char * Pplc_azzstat_xpm[] = {
"24 24 7 1",
" 	s None	c None",
".	c black",
"X	c grey",
"o	c white",
"O	c royalblue",
"+	c grey76",
"@	c azure3",
"  .XXXXXoXXXXXoXXXXXoOOX",
"  .X+X@XoX@XX+oX@XXOOOOX",
". .ooooooooooooooOOOooOO",
"  .XXXOOOOOOOXOOOOXXoXXO",
"  .XXXOXoOXXOOOXXX+XoX+X",
"  .XOOOXoXXXXOoXXXXXoXXX",
"  .OOXXXoXX+XXo+XX+XoX+X",
"  .OX+XXoXXXXXoXXXXXoXX+",
". .ooooooo.oooooooooooo.",
"  .XXXXXo..XXXoXXXXX....",
"  .XXX+X..X..XoXX+X..XXX",
"  .X+XXX.XXX.XoXXX..oXXX",
"  .XXXX..X+X.XoX@X.XoX+X",
"  .XX...oXXX...X...XoXXX",
". .o..oooooooo...ooooooo",
"  ...XXXoXXXXXoXXXXXoXXX",
"  ..X+XXoXX+XXoXX+XXo+XX",
"  .XXXX+oXXXX+oXXXX+oXXX",
"  .XX+XXoXX@XXoXX+XXoXXX",
"  .XXoXXoXXXXXoXXoXXoX+X",
". ......................",
"                        ",
"  .     .     .     .   ",
"                        "};
