#define S24IO_width 45
#define S24IO_height 55
static char S24IO_bits[] = {
   0x00, 0x00, 0x00, 0x00, 0x00, 0x00, 0x80, 0xff, 0xff, 0xff, 0x3f, 0x00,
   0x80, 0x01, 0x00, 0x00, 0x30, 0x00, 0x80, 0x02, 0x00, 0x00, 0x28, 0x00,
   0x80, 0x04, 0x00, 0x00, 0x24, 0x00, 0x80, 0x08, 0x00, 0x00, 0x22, 0x00,
   0x80, 0x10, 0x00, 0x00, 0x21, 0x00, 0x80, 0xe0, 0xff, 0xff, 0x20, 0x00,
   0x80, 0x20, 0x00, 0x80, 0x20, 0x00, 0x80, 0x20, 0x00, 0x80, 0x20, 0x00,
   0x80, 0x20, 0x02, 0x80, 0x20, 0x00, 0x80, 0x20, 0x00, 0x88, 0x20, 0x02,
   0x88, 0x20, 0x02, 0x80, 0x20, 0x03, 0x94, 0x20, 0x00, 0x88, 0x20, 0x02,
   0x94, 0x20, 0x02, 0x80, 0x20, 0x02, 0x94, 0x20, 0x00, 0x88, 0x20, 0x02,
   0x94, 0x20, 0x02, 0x80, 0x20, 0x07, 0x88, 0x20, 0x00, 0x88, 0x20, 0x00,
   0x80, 0x20, 0x02, 0x80, 0x20, 0x00, 0x80, 0x20, 0x00, 0x88, 0x20, 0x00,
   0x80, 0x20, 0x02, 0x80, 0x20, 0x00, 0x80, 0x20, 0x00, 0x88, 0x20, 0x00,
   0x80, 0x20, 0x02, 0x80, 0x20, 0x00, 0x80, 0x20, 0x00, 0x88, 0x20, 0x00,
   0x80, 0x20, 0x02, 0x80, 0x20, 0x00, 0x80, 0x20, 0x00, 0x88, 0x20, 0x00,
   0x80, 0x20, 0x00, 0x80, 0x20, 0x00, 0x80, 0x20, 0x00, 0x80, 0x20, 0x00,
   0x80, 0x20, 0x00, 0x80, 0x20, 0x00, 0x80, 0x20, 0x00, 0x80, 0x20, 0x00,
   0x80, 0x20, 0x00, 0x80, 0x20, 0x00, 0x80, 0x20, 0x00, 0x88, 0x20, 0x00,
   0x80, 0x20, 0x00, 0x80, 0x20, 0x00, 0x80, 0x20, 0x00, 0x88, 0x20, 0x00,
   0x80, 0x20, 0x00, 0x80, 0x20, 0x03, 0x80, 0x20, 0x00, 0x88, 0xa0, 0x04,
   0x80, 0x20, 0x00, 0x80, 0x20, 0x04, 0x80, 0x20, 0x00, 0x88, 0x20, 0x02,
   0x80, 0x20, 0x00, 0x80, 0x20, 0x01, 0x80, 0x20, 0x00, 0x88, 0xa0, 0x07,
   0x80, 0x20, 0x00, 0x80, 0x20, 0x00, 0x80, 0x20, 0x00, 0x88, 0x20, 0x00,
   0x80, 0x20, 0x00, 0x80, 0x20, 0x00, 0x80, 0x20, 0x00, 0x88, 0x20, 0x00,
   0x80, 0x20, 0x00, 0x80, 0x20, 0x00, 0x80, 0x20, 0x00, 0x88, 0x20, 0x00,
   0x80, 0x20, 0x00, 0x80, 0x20, 0x00, 0x80, 0x20, 0x00, 0x80, 0x20, 0x00,
   0x80, 0xe0, 0xff, 0xff, 0x20, 0x00, 0x80, 0x10, 0x00, 0x00, 0x21, 0x00,
   0x80, 0x08, 0x00, 0x00, 0x22, 0x00, 0x80, 0x04, 0x00, 0x00, 0x24, 0x00,
   0x80, 0x02, 0x00, 0x00, 0x28, 0x00, 0x80, 0x01, 0x00, 0x00, 0x30, 0x00,
   0x80, 0xff, 0xff, 0xff, 0x3f, 0x00};
