/* XPM */
static char *a3[] = {
/* a3 pixmap
* width height ncolors chars_per_pixel */
"32 32 16 1 ",
/* colors */
"0 c black       m black         s s_black ",
"r c red        m black         s s_darkred ",
"g c green      m black         s s_darkgreen ",
"y c yellow     m black         s s_darkyellow ",
"b c blue       m black         s s_darkblue ",
"m c magenta    m black         s s_darkmagenta ",
"c c cyan       m black         s s_darkcyan ",
"  c gray50      m black         s s_darkgray ",
"A c gray75      m white         s s_gray ",
"G c green       m white         s s_green ",
"Y c yellow      m white         s s_yellow ",
"B c blue        m white         s s_blue ",
"M c magenta     m white         s s_magenta ",
"C c cyan        m white         s s_cyan ",
"W c white       m white         s s_white ",
"R c None        m white         s None ",
/* pixels */
"RRRRRRRRRRRRRRRRRRRRRRRRRRRRRRRR",
"RRRRRRRRRRRRRRRRRRRRRRRRRRRRRRRR"
"RRR                 RRRRRRRRRRRR",
"RRR WWWWWWWWWWWWWWW 0RRRRRRRRRRR",
"RRR WWWWWWWWWWWWWWW  0RRRRRRRRRR",
"RRR WWWWWWWWWWWWWWW W 0RRRRRRRRR",
"RRR WWWWWWWWWWWWWWW 0000RRRRRRRR",
"RRR WWWWWWWWWWWWWWWWWWA0RRRRRRRR",
"RRR WWWWWWWWWWWWWWWWWWA0RRRRRRRR",
"RRR WWWWWWWWWWWWWWWWWWA0RRRRRRRR",
"RRR WWWWWWWWWWWWWWWWWWA0RRRRRRRR",
"RRR WWWWWWWWWWWWWWWWWWA0RRRRRRRR",
"RRR WWWWWWWWWWWWWWWWWWA0RRRRRRRR",
"RRR WWWWWWWWWWWWWWWWWWA0RRRRRRRR",
"RRR WWWWWWWWWAWWWWWWWWA0RRRRRRRR",
"RRR WWWWWWWWWAWWWWWWWWA0RRRRRRRR",
"RRR WWWWWWWAAAAAWWWWWWA0RRRRRRRR",
"RRR WWWWWWWWWAWWWWWWWWA0RRRRRRRR",
"RRR WWWWWWWWWAWWWWWWWWA0RRRRRRRR",
"RRR WWWWWWWWWWWWWWWWWWA0RRRRRRRR",
"RRR WWWWWWWWWWWWWWWWWWA0RRRRRRRR",
"RRR WWWWWWWWWWWWWWWWWWA0RRRRRRRR",
"RRR WWWWWWWWWWWWWWWWWWA0RRRRRRRR",
"RRR WWWWWWWWWWWWWWWWWWA0RRRRRRRR",
"RRR WWWWWWWWWWWWWWWWWWA0RRRRRRRR",
"RRR WWWWWWWWWWWWWWWWWWA0RRRRRRRR",
"RRR WWWWWWWWWWWWWWWWWWA0RRRRRRRR",
"RRR WWWWWWWWWWWWWWWWWWA0RRRRRRRR",
"RRR WWWWWWWWWWWWWWWWWWA0RRRRRRRR",
"RRR AAAAAAAAAAAAAAAAAAA0RRRRRRRR",
"RRR000000000000000000000RRRRRRRR",
"RRRRRRRRRRRRRRRRRRRRRRRRRRRRRRRR",
};
