/* XPM */
static char *a5[] = {
/* a5 pixmap
* width height ncolors chars_per_pixel */
"32 32 16 1 ",
/* colors */
"0 c black       m black         s s_black ",
"r c red        m black         s s_darkred ",
"g c green      m black         s s_darkgreen ",
"y c yellow     m black         s s_darkyellow ",
"b c blue       m black         s s_darkblue ",
"m c magenta    m black         s s_darkmagenta ",
"c c cyan       m black         s s_darkcyan ",
"  c gray50      m black         s s_darkgray ",
"A c gray75      m white         s s_gray ",
"G c green       m white         s s_green ",
"Y c yellow      m white         s s_yellow ",
"B c blue        m white         s s_blue ",
"M c magenta     m white         s s_magenta ",
"C c cyan        m white         s s_cyan ",
"W c white       m white         s s_white ",
"R c None        m white         s None ",
/* pixels */
"RRRRRRRRRRRRRRRRRRRRRRRRRRRRRRRR",
"RRRRRRRRRRRRRRRRRRRRRRRRRRRRRRRR"
"RRRRRRRRRRRRRRRRRRRRRRRRRRRRRRRR",
"RRRRRRRRRRRRRRRRRRRRRRRRRRRRRRRR",
"RRRRRRRRRRRRRRRRRRRRRRRRRRRRRRRR",
"RRRRRRRRRRRRRRRRRRRRRRRRRRRRRRRR",
"RRRRRRRRRRRRRRRRRRRRRRRRRRRRRRRR",
"RRRRRRRRRRRRRRRRRRRRRRRRRRRRRRRR",
"RRRRRRRRRRRRRRRRRRRRRRRRRRRRRRRR",
"RRR       RRRRRRRRRRRRRRRRRRRRRR",
"RRR WWWWW 0RRRRRRRRRRRRRRRRRRRRR",
"RRR WWWWW  0RRRRRRRRRRRRRRRRRRRR",
"RRR WWWWW W 0RRRRRRRRRRRRRRRRRRR",
"RRR WWWWW 0000RRRRRRRRRRRRRRRRRR",
"RRR WWWWAWWWA0RRRRRRRRRRRRRRRRRR",
"RRR WWWWAWWWA0RRRRRRRRRRRRRRRRRR",
"RRR WWAAAAAWA0RRRRRRRRRRRRRRRRRR",
"RRR WWWWAWWWA0RRRRRRRRRRRRRRRRRR",
"RRR WWWWAWWWA0RRRRRRRRRRRRRRRRRR",
"RRR WWWWWWWWA0RRRRRRRRRRRRRRRRRR",
"RRR WWWWWWWWA0RRRRRRRRRRRRRRRRRR",
"RRR AAAAAAAAA0RRRRRRRRRRRRRRRRRR",
"RRR00000000000RRRRRRRRRRRRRRRRRR",
"RRRRRRRRRRRRRRRRRRRRRRRRRRRRRRRR",
"RRRRRRRRRRRRRRRRRRRRRRRRRRRRRRRR",
"RRRRRRRRRRRRRRRRRRRRRRRRRRRRRRRR",
"RRRRRRRRRRRRRRRRRRRRRRRRRRRRRRRR",
"RRRRRRRRRRRRRRRRRRRRRRRRRRRRRRRR",
"RRRRRRRRRRRRRRRRRRRRRRRRRRRRRRRR",
"RRRRRRRRRRRRRRRRRRRRRRRRRRRRRRRR",
"RRRRRRRRRRRRRRRRRRRRRRRRRRRRRRRR",
"RRRRRRRRRRRRRRRRRRRRRRRRRRRRRRRR",
};
