#define ABS_width 16
#define ABS_height 16
static char ABS_bits[] = {
   0x00, 0x00, 0x00, 0x00, 0x00, 0x00, 0x08, 0x10, 0x08, 0x10, 0x08, 0x10,
   0x08, 0x11, 0x88, 0x13, 0x08, 0x11, 0x08, 0x10, 0x08, 0x10, 0x08, 0x10,
   0x08, 0x10, 0x00, 0x00, 0x00, 0x00, 0x00, 0x00};
