#define ACOS_width 16
#define ACOS_height 16
static char ACOS_bits[] = {
   0x80, 0x00, 0x80, 0x00, 0x87, 0x00, 0x98, 0x00, 0xa0, 0x00, 0xc0, 0x00,
   0xc0, 0x00, 0x80, 0x00, 0x80, 0x01, 0x80, 0x01, 0x80, 0x02, 0x80, 0x0c,
   0x80, 0xf0, 0xff, 0xff, 0x80, 0x00, 0x80, 0x00};
