/* XPM */
static char * activIO_xpm[] = {
/* width height num_colors chars_per_pixel */
"32 32 17 1",
/* colors */
" 	c None",
".	c #c8e4d8",
"X	c #c0c0c0",
"o	c gray91",
"O	c gray69",
"+	c #90c8a8",
"@	c #648864",
"#	c #387038",
"$	c #3c703c",
"%	c #647c64",
"&	c #7c7c7c",
"*	c #286834",
"=	c #0c5c34",
"-	c #489068",
";	c #646464",
":	c #386c38",
">	c #346834",
/* pixels */
"                                ",
"                                ",
"                                ",
"             .....X             ",
"          .ooooo..XXX           ",
"        .oooo..XXXXXXOO         ",
"       ooooXXXXXXXXXXOOO        ",
"      ooo.XX+@#$@%OXXXOOO       ",
"     .ooXXO$$######$OXXO&O      ",
"     oo.X+###*****###+XO&&      ",
"    .ooX+##*=======*##OX&&O     ",
"    oo.X%#*=-$======*#$OX&&X    ",
"    ooX+##=-.+*======##&O&&O    ",
"   .o.X@#*=-+-=======*#$&&&&    ",
"   .o.X##*==*========*#$@O;&    ",
"   .oXX@#*************#:@%;&    ",
"   ..XX#########::::::#$@%;&    ",
"    ..X%#::::::::::::##$@%;&    ",
"    XXX&##:::::::::::#>$@;;%    ",
"    XXXX$##:::::::::##*@@;;%O   ",
"     XOX+###:::::::#:*@@;;;%&   ",
"     OOXX+###:::::#:*$@%;;;@&   ",
"     OOOOX+$######::@@%;;;%@@   ",
"      OOOOXO@$:*$#$@@@;;;;@@@   ",
"       O&&OOX+@@@@@@%;;;;%@@@   ",
"         &&&&O&%%%%;;;;;%@@@+   ",
"         OO&&&;;;;;;;;%@@@@@    ",
"           OOOO&&&&%%@@@@@@     ",
"                   O&@@@@&      ",
"                      O         ",
"                                ",
"                                "};
