/* XPM */
static char * ADDCOLL_xpm[] = {
"16 16 3 1",
" 	c none",
".	c red",
"X	c black",
"                ",
"                ",
"                ",
"                ",
"                ",
"   . .    X X   ",
"   . .    X X   ",
"   . .    X X   ",
".... .XXXXX XXXX",
"   . .    X X   ",
"   . .    X X   ",
"   . .    X X   ",
"                ",
"                ",
"                ",
"                "};
