/* XPM */
static char * ADDCOLR_xpm[] = {
"16 16 3 1",
" 	c none",
".	c black",
"X	c red",
"                ",
"                ",
"                ",
"                ",
"                ",
"   . .    X X   ",
"   . .    X X   ",
"   . .    X X   ",
".... .....X XXXX",
"   . .    X X   ",
"   . .    X X   ",
"   . .    X X   ",
"                ",
"                ",
"                ",
"                "};
