/* XPM */
static char * ADDROW_xpm[] = {
"16 16 3 1",
" 	s None	c None",
".	c black",
"X	c red",
"   . .    . .   ",
"   . .    . .   ",
"   . .    . .   ",
".... ...... ....",
"   . . X  . .   ",
"   . . X  . .   ",
"   . . X  . .   ",
"       X        ",
"       X        ",
"       X  X X   ",
"       X  X X   ",
"       X  X X   ",
"       XXXX XXXX",
"          X X   ",
"          X X   ",
"          X X   "};
