#define ASIN_width 16
#define ASIN_height 16
static char ASIN_bits[] = {
   0x80, 0xe0, 0x80, 0x18, 0x80, 0x04, 0x80, 0x02, 0x80, 0x02, 0x80, 0x01,
   0x80, 0x01, 0xff, 0xff, 0xc0, 0x00, 0xc0, 0x00, 0xa0, 0x00, 0xa0, 0x00,
   0x90, 0x00, 0x88, 0x00, 0x84, 0x00, 0x83, 0x00};
