#define ATAN_width 16
#define ATAN_height 16
static char ATAN_bits[] = {
   0x00, 0x01, 0x00, 0x01, 0x00, 0xe1, 0x00, 0x19, 0x00, 0x05, 0x00, 0x03,
   0x00, 0x03, 0xff, 0xff, 0x80, 0x01, 0x80, 0x01, 0x40, 0x01, 0x30, 0x01,
   0x0f, 0x01, 0x00, 0x01, 0x00, 0x01, 0x00, 0x01};
