/* XPM */
static char * Save_xpm[] = {
"32 32 5 1",
" 	s grey	c grey",
".	c black",
"X	c skyblue",
"o	c white",
"O	c grey",
"                                ",
"                                ",
"                                ",
"                                ",
"                                ",
"     ......................     ",
"    ....XXXXXXXXXXXXXXXX....    ",
"    .o..XXXXXXXXXXXXXXXX....    ",
"    .O..oooooooooooooooo....    ",
"    ....oooooooooooooooo....    ",
"    ....oooooooooooooooo....    ",
"    ....oooooooooooooooo....    ",
"    ....oooooooooooooooo....    ",
"    ....oooooooooooooooo....    ",
"    ....oooooooooooooooo....    ",
"    ....oooooooooooooooo....    ",
"    ....oooooooooooooooo....    ",
"    ....oooooooooooooooo....    ",
"    ........................    ",
"    ........................    ",
"    ........................    ",
"    .....OOOOOOOOOOOOOO.....    ",
"    ....O....OOoOOOOOoO.....    ",
"    ....O....OOOOOOOOOO.....    ",
"    ....O....OOOOOoOOOO.....    ",
"    ....O....OOoOOOOOOO.....    ",
"    ....OOOOOOOOOOOoOOO.....    ",
"      .....................     ",
"                                ",
"                                ",
"                                ",
"                                "};
