#define BITFIELD_width 16
#define BITFIELD_height 16
static char BITFIELD_bits[] = {
   0x22, 0x02, 0x53, 0x05, 0x52, 0x05, 0x52, 0x05, 0x52, 0x05, 0x27, 0x02,
   0x00, 0x00, 0x20, 0x02, 0x50, 0x05, 0x00, 0x00, 0x00, 0x44, 0x00, 0xaa,
   0x00, 0xaa, 0x00, 0xaa, 0x00, 0xaa, 0x00, 0x44};
