#define BITSET_width 16
#define BITSET_height 16
static char BITSET_bits[] = {
   0x00, 0x00, 0x00, 0x00, 0x88, 0x08, 0x4c, 0x15, 0x48, 0x15, 0x48, 0x15,
   0x48, 0x15, 0x9c, 0x08, 0x00, 0x00, 0x00, 0x00, 0x88, 0x08, 0xcc, 0x14,
   0x88, 0x14, 0x88, 0x14, 0x88, 0x14, 0xdc, 0x09};
