#define BITTEST_width 16
#define BITTEST_height 16
static char BITTEST_bits[] = {
   0x00, 0x00, 0x00, 0x00, 0x88, 0x08, 0x4c, 0x15, 0x48, 0x15, 0x48, 0x15,
   0x48, 0x15, 0x9c, 0x08, 0x00, 0x00, 0x80, 0x00, 0x40, 0x41, 0x80, 0xa0,
   0x80, 0xa0, 0x80, 0xaf, 0x00, 0xa0, 0x00, 0x40};
