#define cless_width 45
#define cless_height 65
#define cless_x_hot 1
#define cless_y_hot 1
static char cless_bits[] = {
   0x00, 0x00, 0x00, 0x00, 0x00, 0x00, 0xf8, 0xff, 0xff, 0xff, 0xff, 0x03,
   0x9c, 0x4a, 0x84, 0x88, 0xd0, 0x04, 0x9c, 0x4a, 0x84, 0x88, 0xd0, 0x04,
   0x9c, 0xca, 0xc6, 0x8c, 0xd1, 0x04, 0xf8, 0xff, 0xff, 0xff, 0xff, 0x03,
   0xf0, 0x05, 0x03, 0x06, 0xe4, 0x01, 0x70, 0x07, 0x01, 0x02, 0x48, 0x01,
   0x70, 0x05, 0x01, 0x02, 0x48, 0x01, 0x70, 0x05, 0x01, 0x02, 0x48, 0x01,
   0x70, 0x01, 0x00, 0x02, 0x48, 0x01, 0x70, 0x03, 0x01, 0x02, 0x54, 0x01,
   0x70, 0x03, 0x01, 0x02, 0x54, 0x01, 0x70, 0x0d, 0x01, 0x02, 0x54, 0x01,
   0x70, 0x02, 0xc0, 0x02, 0x48, 0x01, 0x70, 0x02, 0xc0, 0x02, 0x48, 0x01,
   0x70, 0x06, 0x61, 0x03, 0x48, 0x01, 0x70, 0x0c, 0x3d, 0x02, 0x46, 0x01,
   0x70, 0x18, 0x6f, 0x13, 0x41, 0x01, 0x70, 0x98, 0x5f, 0x0a, 0x42, 0x01,
   0x70, 0xf0, 0xeb, 0xb2, 0x41, 0x01, 0x70, 0xf0, 0xeb, 0xb2, 0x41, 0x01,
   0x70, 0xa0, 0x7f, 0x0b, 0x40, 0x01, 0x70, 0x60, 0xdf, 0xd2, 0x40, 0x01,
   0x70, 0x80, 0x64, 0x22, 0x40, 0x01, 0x70, 0x00, 0xdb, 0x1a, 0x40, 0x01,
   0x70, 0x00, 0x57, 0x03, 0x40, 0x01, 0x70, 0x00, 0x57, 0x03, 0x40, 0x01,
   0x70, 0x00, 0x6f, 0x02, 0x40, 0x01, 0x70, 0x00, 0xc7, 0x02, 0x40, 0x01,
   0x70, 0x00, 0x57, 0x03, 0x40, 0x01, 0x70, 0x00, 0x17, 0x03, 0x40, 0x01,
   0x70, 0x00, 0x17, 0x03, 0x40, 0x01, 0x70, 0x00, 0x57, 0x03, 0x40, 0x01,
   0x70, 0x00, 0x37, 0x03, 0x40, 0x01, 0x70, 0x00, 0xe7, 0x02, 0x40, 0x01,
   0x70, 0x00, 0x1f, 0x03, 0x40, 0x01, 0x70, 0x00, 0x47, 0x02, 0x40, 0x01,
   0x70, 0x00, 0x47, 0x02, 0x40, 0x01, 0x70, 0x00, 0x03, 0x1a, 0x40, 0x01,
   0x70, 0x80, 0x45, 0x22, 0x40, 0x01, 0x70, 0xe0, 0x01, 0xd2, 0x40, 0x01,
   0x70, 0x40, 0xc0, 0x02, 0x40, 0x01, 0x70, 0x30, 0x01, 0x82, 0x41, 0x01,
   0x70, 0x30, 0x01, 0x82, 0x41, 0x01, 0x70, 0x08, 0x01, 0x02, 0x42, 0x01,
   0x70, 0x18, 0x41, 0x02, 0x41, 0x01, 0x70, 0x0c, 0xa0, 0x03, 0x46, 0x01,
   0x70, 0x06, 0xf9, 0x02, 0x48, 0x01, 0x70, 0x02, 0x2d, 0x03, 0x48, 0x01,
   0x70, 0x02, 0x2d, 0x03, 0x48, 0x01, 0x70, 0x0f, 0x59, 0x0b, 0x54, 0x01,
   0x70, 0x05, 0xbf, 0x12, 0x54, 0x01, 0x70, 0x8a, 0x75, 0x32, 0x48, 0x01,
   0x70, 0x83, 0xa7, 0x02, 0x48, 0x01, 0x70, 0xee, 0x5e, 0x53, 0x48, 0x01,
   0x70, 0xee, 0x5e, 0x53, 0x48, 0x01, 0x70, 0xea, 0xab, 0x8a, 0x48, 0x01,
   0xf0, 0xf5, 0x3f, 0x83, 0x71, 0x01, 0xf0, 0xfb, 0x97, 0x12, 0x72, 0x01,
   0xf8, 0xff, 0xff, 0xff, 0xff, 0x03, 0x9c, 0x4a, 0x84, 0x88, 0xd0, 0x04,
   0x9c, 0x4a, 0x84, 0x88, 0xd0, 0x04, 0x9c, 0xca, 0xd6, 0x8c, 0xd1, 0x04,
   0xf8, 0xff, 0xff, 0xff, 0xff, 0x03};
