#define COLLEG_width 16
#define COLLEG_height 16
static char COLLEG_bits[] = {
   0x00, 0x00, 0x08, 0x00, 0x08, 0x00, 0x08, 0x00, 0xf8, 0x1f, 0x08, 0x00,
   0x08, 0x00, 0xf8, 0x1f, 0x08, 0x00, 0x08, 0x00, 0xf8, 0x1f, 0x08, 0x00,
   0x08, 0x00, 0x08, 0x00, 0x00, 0x00, 0x00, 0x00};
