/* XPM */
static char * connect_xpm[] = {
/* width height ncolors chars_per_pixel */
"32 32 3 1",
/* colors */
" 	s None	c None",
".	c grey30",
"X	c white",
/* pixels */
"                                ",
" .                              ",
" ...                            ",
" .X..                           ",
" ..X..                          ",
"  ..X..                         ",
"   ..X..                        ",
"    ..X.. ....                  ",
"     ..X..  ...                 ",
"      ..X..  .X.                ",
"      ...X.. ..X.               ",
"      .....   ..X.              ",
"      .X..     ..X.             ",
"      .X. .     ..X.            ",
"      ..X.       ..X.           ",
"       ..X.        .X           ",
"        ..X.   ...  X           ",
"         ..X.  .X.. X           ",
"          ..X. ..X..            ",
"           ..X. ..X..           ",
"            ..X....X..          ",
"             .......X..         ",
"                   ..X.. ....   ",
"                    ..X..  ...  ",
"                     ..X..  .X. ",
"                     ...X.. ..X ",
"                     ....X.. .. ",
"                     .X.....  . ",
"                     .X. ..     ",
"                     ..X.       ",
"                      ..X.      ",
"                                "};
