#define cont2_width 40
#define cont2_height 45
static char cont2_bits[] = {
   0x00, 0x00, 0x00, 0x00, 0x00, 0x00, 0x00, 0x00, 0x00, 0x00, 0x00, 0x00,
   0x00, 0x00, 0x00, 0x00, 0x00, 0x00, 0x00, 0x00, 0x00, 0x00, 0x00, 0x00,
   0x00, 0x00, 0x00, 0x00, 0x00, 0x00, 0x00, 0x00, 0x00, 0x00, 0x00, 0x00,
   0x00, 0x00, 0x00, 0x00, 0x00, 0x00, 0x00, 0x00, 0x00, 0x00, 0x00, 0x00,
   0x00, 0x00, 0x00, 0x00, 0x00, 0x00, 0x00, 0x00, 0x00, 0x00, 0x00, 0x00,
   0x00, 0x00, 0x00, 0x00, 0x00, 0x00, 0x00, 0x00, 0x00, 0x00, 0x00, 0x00,
   0x00, 0x00, 0x00, 0x00, 0x00, 0x00, 0x00, 0x00, 0x00, 0x00, 0x00, 0x00,
   0x00, 0x00, 0x00, 0x00, 0x00, 0x00, 0x00, 0x00, 0x00, 0x00, 0x00, 0x00,
   0x00, 0x00, 0x00, 0x00, 0x00, 0x00, 0x00, 0x00, 0x00, 0x00, 0x00, 0x00,
   0x00, 0x00, 0x00, 0x00, 0x00, 0x00, 0x00, 0x00, 0xfc, 0xff, 0x3f, 0x00,
   0x00, 0xfc, 0xff, 0x3f, 0x00, 0x00, 0x0c, 0x00, 0x3c, 0x00, 0x00, 0x0c,
   0x00, 0x37, 0x00, 0x00, 0x0c, 0x80, 0x31, 0x00, 0x00, 0x0c, 0x60, 0x30,
   0x00, 0xff, 0x0f, 0x30, 0xf0, 0xff, 0xff, 0x0f, 0x0c, 0xf0, 0xff, 0x00,
   0x0c, 0x06, 0x30, 0x00, 0x00, 0x8c, 0x01, 0x30, 0x00, 0x00, 0xec, 0x00,
   0x30, 0x00, 0x00, 0x3c, 0x00, 0x30, 0x00, 0x00, 0xfc, 0xff, 0x3f, 0x00,
   0x00, 0xfc, 0xff, 0x3f, 0x00, 0x00, 0x00, 0x00, 0x00, 0x00, 0x00, 0x00,
   0x00, 0x00, 0x00, 0x00, 0x00, 0x00, 0x00, 0x00, 0x00, 0x00, 0x00, 0x00,
   0x00, 0x00, 0x00, 0x00, 0x00, 0x00, 0x00, 0x00, 0x00, 0x00, 0x00, 0x00,
   0x00, 0x00, 0x00, 0x00, 0x00, 0x00, 0x00, 0x00, 0x00};
