#define CONT5B_width 16
#define CONT5B_height 16
static char CONT5B_bits[] = {
   0x00, 0x00, 0x00, 0x00, 0x00, 0x00, 0x00, 0x00, 0x00, 0x00, 0xc8, 0x09,
   0x24, 0x12, 0x24, 0x10, 0xc7, 0xf1, 0x04, 0x12, 0x24, 0x12, 0xc8, 0x09,
   0x00, 0x00, 0x00, 0x00, 0x00, 0x00, 0x00, 0x00};
