#define CONT4RB_width 16
#define CONT4RB_height 16
static char CONT4RB_bits[] = {
   0x00, 0x00, 0x00, 0x00, 0x00, 0x00, 0x00, 0x00, 0xc0, 0x01, 0x20, 0x02,
   0x10, 0x06, 0x10, 0x05, 0x9f, 0xfc, 0x50, 0x04, 0x30, 0x04, 0x20, 0x02,
   0xc0, 0x01, 0x00, 0x00, 0x00, 0x00, 0x00, 0x00};
