#define CONT3RB_width 16
#define CONT3RB_height 16
static char CONT3RB_bits[] = {
   0x00, 0x00, 0x00, 0x00, 0x00, 0x00, 0x00, 0x00, 0x00, 0x00, 0x20, 0x02,
   0x10, 0x06, 0x10, 0x05, 0x9f, 0xfc, 0x50, 0x04, 0x30, 0x04, 0x20, 0x02,
   0x00, 0x00, 0x00, 0x00, 0x00, 0x00, 0x00, 0x00};
