#define cont2_width 40
#define cont2_height 45
static char cont2_bits[] = {
   0x00, 0x00, 0x00, 0x00, 0x00, 0x00, 0x00, 0x00, 0x00, 0x00, 0x00, 0x00,
   0x00, 0x00, 0x00, 0x00, 0x00, 0x00, 0x00, 0x00, 0x00, 0x00, 0x00, 0x00,
   0x00, 0x00, 0x00, 0x00, 0x00, 0x00, 0x00, 0x00, 0x00, 0x00, 0x00, 0x00,
   0x00, 0x00, 0x00, 0x00, 0x00, 0x00, 0x00, 0x00, 0x00, 0x00, 0x00, 0x00,
   0x00, 0x00, 0x00, 0x00, 0x00, 0x00, 0x00, 0x00, 0x00, 0x00, 0x00, 0x00,
   0x00, 0x00, 0x00, 0x00, 0x00, 0x00, 0x00, 0x00, 0x00, 0x00, 0x00, 0x00,
   0x00, 0x00, 0x00, 0x00, 0x00, 0x00, 0x00, 0x00, 0x00, 0x00, 0x00, 0x00,
   0x00, 0x00, 0x00, 0x00, 0x00, 0x00, 0x00, 0x00, 0x00, 0x00, 0x00, 0x00,
   0x00, 0x00, 0x00, 0x00, 0x00, 0xc0, 0x60, 0x03, 0x00, 0x00, 0xc0, 0x60,
   0x03, 0x00, 0x00, 0xc0, 0x20, 0x03, 0x00, 0x00, 0xc0, 0x20, 0x03, 0x00,
   0x00, 0xc0, 0x30, 0x03, 0x00, 0x00, 0xc0, 0x30, 0x03, 0x00, 0x00, 0xc0,
   0x10, 0x03, 0x00, 0x00, 0xc0, 0x10, 0x03, 0x00, 0x00, 0xc0, 0x10, 0x03,
   0x00, 0xff, 0xff, 0x18, 0xff, 0xff, 0xff, 0xff, 0x08, 0xff, 0xff, 0x00,
   0xc0, 0x08, 0x03, 0x00, 0x00, 0xc0, 0x08, 0x03, 0x00, 0x00, 0xc0, 0x08,
   0x03, 0x00, 0x00, 0xc0, 0x0c, 0x03, 0x00, 0x00, 0xc0, 0x0c, 0x03, 0x00,
   0x00, 0xc0, 0x04, 0x03, 0x00, 0x00, 0xc0, 0x04, 0x03, 0x00, 0x00, 0xc0,
   0x06, 0x03, 0x00, 0x00, 0xc0, 0x06, 0x03, 0x00, 0x00, 0x00, 0x00, 0x00,
   0x00, 0x00, 0x00, 0x00, 0x00, 0x00, 0x00, 0x00, 0x00, 0x00, 0x00, 0x00,
   0x00, 0x00, 0x00, 0x00, 0x00, 0x00, 0x00, 0x00, 0x00};
