#define CONT1RB_width 16
#define CONT1RB_height 16
static char CONT1RB_bits[] = {
   0x00, 0x00, 0x00, 0x00, 0x00, 0x00, 0x00, 0x00, 0x00, 0x00, 0xf8, 0x1f,
   0x08, 0x10, 0x08, 0x10, 0x0f, 0xf0, 0x08, 0x10, 0x08, 0x10, 0xf8, 0x1f,
   0x00, 0x00, 0x00, 0x00, 0x00, 0x00, 0x00, 0x00};
