#define CONT1B_width 16
#define CONT1B_height 16
static char CONT1B_bits[] = {
   0x00, 0x00, 0x00, 0x00, 0x00, 0x00, 0x20, 0x04, 0x20, 0x04, 0x20, 0x04,
   0x20, 0x04, 0x20, 0x04, 0x3f, 0xfc, 0x20, 0x04, 0x20, 0x04, 0x20, 0x04,
   0x20, 0x04, 0x00, 0x00, 0x00, 0x00, 0x00, 0x00};
