#define CONT3B_width 16
#define CONT3B_height 16
static char CONT3B_bits[] = {
   0x00, 0x00, 0x00, 0x00, 0x00, 0x00, 0x00, 0x00, 0x00, 0x00, 0x20, 0x02,
   0x10, 0x04, 0x10, 0x04, 0x1f, 0xfc, 0x10, 0x04, 0x10, 0x04, 0x20, 0x02,
   0x00, 0x00, 0x00, 0x00, 0x00, 0x00, 0x00, 0x00};
