#define cont4r_width 40
#define cont4r_height 45
static char cont4r_bits[] = {
   0x00, 0x00, 0x00, 0x00, 0x00, 0x00, 0x00, 0x00, 0x00, 0x00, 0x00, 0x00,
   0x00, 0x00, 0x00, 0x00, 0x00, 0x00, 0x00, 0x00, 0x00, 0x00, 0x00, 0x00,
   0x00, 0x00, 0x00, 0x00, 0x00, 0x00, 0x00, 0x00, 0x00, 0x00, 0x00, 0x00,
   0x00, 0x00, 0x00, 0x00, 0x00, 0x00, 0x00, 0x00, 0x00, 0x00, 0x00, 0x00,
   0x00, 0x00, 0x00, 0x00, 0x00, 0x00, 0x00, 0x00, 0x00, 0x00, 0x00, 0x00,
   0x00, 0x00, 0x00, 0x00, 0x00, 0x00, 0x00, 0x00, 0x00, 0x00, 0x00, 0x00,
   0x00, 0x00, 0x00, 0x00, 0x00, 0x00, 0x00, 0x00, 0x00, 0x00, 0x00, 0x00,
   0x00, 0x00, 0x00, 0x00, 0x00, 0x00, 0x00, 0x00, 0x00, 0x00, 0x00, 0x00,
   0x00, 0x00, 0x00, 0x00, 0x00, 0x80, 0xff, 0x00, 0x00, 0x00, 0xe0, 0xff,
   0x03, 0x00, 0x00, 0x70, 0x00, 0x07, 0x00, 0x00, 0x38, 0x00, 0x0f, 0x00,
   0x00, 0x18, 0x80, 0x0d, 0x00, 0x00, 0x0c, 0xc0, 0x18, 0x00, 0x00, 0x0c,
   0x60, 0x18, 0x00, 0x00, 0x0c, 0x30, 0x18, 0x00, 0x00, 0x0c, 0x18, 0x18,
   0x00, 0xff, 0x0f, 0x0c, 0xf8, 0xff, 0xff, 0x0f, 0x06, 0xf8, 0xff, 0x00,
   0x0c, 0x03, 0x18, 0x00, 0x00, 0x8c, 0x01, 0x18, 0x00, 0x00, 0xcc, 0x00,
   0x18, 0x00, 0x00, 0x78, 0x00, 0x0c, 0x00, 0x00, 0x38, 0x00, 0x0e, 0x00,
   0x00, 0x70, 0x00, 0x07, 0x00, 0x00, 0xe0, 0xff, 0x03, 0x00, 0x00, 0x80,
   0xff, 0x00, 0x00, 0x00, 0x00, 0x00, 0x00, 0x00, 0x00, 0x00, 0x00, 0x00,
   0x00, 0x00, 0x00, 0x00, 0x00, 0x00, 0x00, 0x00, 0x00, 0x00, 0x00, 0x00,
   0x00, 0x00, 0x00, 0x00, 0x00, 0x00, 0x00, 0x00, 0x00};
