#define CONT2RB_width 16
#define CONT2RB_height 16
static char CONT2RB_bits[] = {
   0x00, 0x00, 0x00, 0x00, 0x00, 0x00, 0x00, 0x00, 0x00, 0x00, 0xf8, 0x1f,
   0x08, 0x1c, 0x08, 0x12, 0x8f, 0xf1, 0x48, 0x10, 0x38, 0x10, 0xf8, 0x1f,
   0x00, 0x00, 0x00, 0x00, 0x00, 0x00, 0x00, 0x00};
