#define CONT2B_width 16
#define CONT2B_height 16
static char CONT2B_bits[] = {
   0x00, 0x00, 0x00, 0x00, 0x00, 0x00, 0x20, 0x06, 0x20, 0x06, 0x20, 0x05,
   0x20, 0x05, 0x20, 0x05, 0xbf, 0xfc, 0xa0, 0x04, 0xa0, 0x04, 0x60, 0x04,
   0x60, 0x04, 0x00, 0x00, 0x00, 0x00, 0x00, 0x00};
