#define cont1_width 40
#define cont1_height 45
static char cont1_bits[] = {
   0x00, 0x00, 0x00, 0x00, 0x00, 0x00, 0x00, 0x00, 0x00, 0x00, 0x00, 0x00,
   0x00, 0x00, 0x00, 0x00, 0x00, 0x00, 0x00, 0x00, 0x00, 0x00, 0x00, 0x00,
   0x00, 0x00, 0x00, 0x00, 0x00, 0x00, 0x00, 0x00, 0x00, 0x00, 0x00, 0x00,
   0x00, 0x00, 0x00, 0x00, 0x00, 0x00, 0x00, 0x00, 0x00, 0x00, 0x00, 0x00,
   0x00, 0x00, 0x00, 0x00, 0x00, 0x00, 0x00, 0x00, 0x00, 0x00, 0x00, 0x00,
   0x00, 0x00, 0x00, 0x00, 0x00, 0x00, 0x00, 0x00, 0x00, 0x00, 0x00, 0x00,
   0x00, 0x00, 0x00, 0x00, 0x00, 0x00, 0x00, 0x00, 0x00, 0x00, 0x00, 0x00,
   0x00, 0x00, 0x00, 0x00, 0x00, 0x00, 0x00, 0x00, 0x00, 0x00, 0x00, 0x00,
   0x00, 0x00, 0x00, 0x00, 0x00, 0xc0, 0x00, 0x03, 0x00, 0x00, 0xc0, 0x00,
   0x03, 0x00, 0x00, 0xc0, 0x00, 0x03, 0x00, 0x00, 0xc0, 0x00, 0x03, 0x00,
   0x00, 0xc0, 0x00, 0x03, 0x00, 0x00, 0xc0, 0x00, 0x03, 0x00, 0x00, 0xc0,
   0x00, 0x03, 0x00, 0x00, 0xc0, 0x00, 0x03, 0x00, 0x00, 0xc0, 0x00, 0x03,
   0x00, 0xff, 0xff, 0x00, 0xff, 0xff, 0xff, 0xff, 0x00, 0xff, 0xff, 0x00,
   0xc0, 0x00, 0x03, 0x00, 0x00, 0xc0, 0x00, 0x03, 0x00, 0x00, 0xc0, 0x00,
   0x03, 0x00, 0x00, 0xc0, 0x00, 0x03, 0x00, 0x00, 0xc0, 0x00, 0x03, 0x00,
   0x00, 0xc0, 0x00, 0x03, 0x00, 0x00, 0xc0, 0x00, 0x03, 0x00, 0x00, 0xc0,
   0x00, 0x03, 0x00, 0x00, 0xc0, 0x00, 0x03, 0x00, 0x00, 0x00, 0x00, 0x00,
   0x00, 0x00, 0x00, 0x00, 0x00, 0x00, 0x00, 0x00, 0x00, 0x00, 0x00, 0x00,
   0x00, 0x00, 0x00, 0x00, 0x00, 0x00, 0x00, 0x00, 0x00};
