#define CONT6B_width 16
#define CONT6B_height 16
static char CONT6B_bits[] = {
   0x00, 0x00, 0x00, 0x00, 0x00, 0x00, 0x00, 0x00, 0x00, 0x00, 0xe8, 0x09,
   0x24, 0x12, 0x24, 0x12, 0xe7, 0xf1, 0xa4, 0x10, 0x24, 0x11, 0x28, 0x0a,
   0x00, 0x00, 0x00, 0x00, 0x00, 0x00, 0x00, 0x00};
