#define CONT3RB_width 16
#define CONT3RB_height 16
static char CONT3RB_bits[] = {
   0x00, 0x00, 0x00, 0x00, 0x00, 0x00, 0x00, 0x00, 0xc0, 0x01, 0x20, 0x02,
   0x10, 0x04, 0x10, 0x04, 0x1f, 0xfc, 0x10, 0x04, 0x10, 0x04, 0x20, 0x02,
   0xc0, 0x01, 0x00, 0x00, 0x00, 0x00, 0x00, 0x00};
