/* XPM */
static char * convert3_xpm[] = {
/* convert3 pixmap
* width height ncolors chars_per_pixel */
"32 32 14 1",
/* colors */
" 	s s_black	m black	c black",
".	s None	m white	c None",
"X	s s_white	m white	c white",
"o	s s_green	m white	c green",
"O	s s_yellow	m white	c yellow",
"+	s s_darkblue	m black	c blue",
"@	s s_darkgray	m black	c gray50",
"#	s s_darkgreen	m black	c green",
"$	s s_darkyellow	m black	c yellow",
"%	s s_cyan	m white	c cyan",
"&	s s_darkcyan	m black	c cyan",
"*	s s_darkmagenta	m black	c magenta",
"=	s s_magenta	m white	c magenta",
"-	s s_gray	m white	c gray75",
/* pixels */
"             ......             ",
" XoXoXoXoXoo ...... OOXOXOXOXOX ",
" oXoXoXoXooo ..++.. OOOXOXOXOXO ",
" XoXoXoXooo@ ++++++ @OOOXOXOXOX ",
" oXoXoXooo@o +++X++ O@OOOXOXOXO ",
" XoXoXooo@o# +++XX+ $O@OOOXOXOX ",
" oXoXooo@o#o +++@XX  $O@OOOXOXO ",
" XoXooo@o#o# XXX@@XX  $O@OOOXOX ",
" oXooo@o#o#o @@@@@@XX  $O@OOOXO ",
" Xooo@o# #o# @@@@@@X  $O$O@OOOX ",
" ooo@o#   ##    @@X  $O$O$O@OOO ",
" oo@o#  X  # ++ @X+ $$$O$O$O@OO ",
"       XXX   ++ X               ",
"...+++XX@@X +++  ++++ @@X++++...",
"...++XX@@@@X ++++++++ @@X++++...",
"..++XX@@@@@@X ++++    @@X+++++..",
"..+++++X@@    ++++ X@@@@@@XX++..",
"...++++X@@ ++++++++ X@@@@XX++...",
"...++++X@@ ++++  +++ X@@XX+++...",
"             + X ++   XXX       ",
" %%@%&%&%&&&  X@ ++ *  X  *=-== ",
" %%%@%&%&%&  X@@    **   *=-=== ",
" X%%%@%&%&  X@@@@@@ *=* *=-===@ ",
" %X%%%@%&  XX@@@@@@ =*=*=-===@= ",
" X%X%%%@%&  XX@@XXX *=*=-===@=X ",
".........%&  XX@+++ =*=-===@=X= ",
"    .. ..@%& +XX+++ *=-===@=X=X ",
" ....  ..%@% ++X+++ =-===@=X=X= ",
"   ... ..%%@ ++++++ -===@=X=X=X ",
" ..... ..%%% ..++.. ===@=X=X=X= ",
" ..... ..X%% ...... ==@=X=X=X=X ",
" ....   .    ......             "};
