#define COS_width 16
#define COS_height 16
static char COS_bits[] = {
   0x01, 0x00, 0x01, 0x00, 0x01, 0x00, 0x03, 0x80, 0x07, 0xc0, 0x09, 0x20,
   0x11, 0x10, 0x11, 0x10, 0xff, 0xff, 0x21, 0x08, 0x21, 0x08, 0x41, 0x04,
   0x81, 0x03, 0x01, 0x01, 0x01, 0x00, 0x01, 0x00};
