/* XPM */
static char * deactIO_xpm[] = {
/* width height num_colors chars_per_pixel */
"32 32 17 1",
/* colors */
" 	c None",
".	c #dcc4c8",
"X	c #c0c0c0",
"o	c #ece8e8",
"O	c gray69",
"+	c #cc8c98",
"@	c #a05454",
"#	c #a43838",
"$	c #989090",
"%	c #943434",
"&	c #803440",
"*	c #782838",
"=	c #8c8080",
"-	c #807c7c",
";	c #a03838",
":	c #6c6c6c",
">	c #a03434",
/* pixels */
"                                ",
"                                ",
"                                ",
"             .....XX            ",
"          .ooooo..XXX           ",
"        .oooo..XXXXXXOO         ",
"       ooooXXXXXXXXXXOOO        ",
"      ooo.XX+@#@@@OXXXO$O       ",
"     .ooXXO@#######@OXX$$O      ",
"     oo.X+###%&&&&###+XO$$X     ",
"    .ooX+##%*******%##OX$=O     ",
"    oo.X@#%*@@******%#@OX--     ",
"    ooX+#%&@o+&******##=O=-O    ",
"   .o.X@#%*@.+*******%#@$$-$    ",
"   .o.X##&*&&********%#;-$:=    ",
"   .oXX@#%%&&%%%%&&%%%#%-::=    ",
"   ..XX################;-::=    ",
"    ..X@###############;-::=    ",
"    XXX$##############%@-:::    ",
"     XXX@#############%--:::$   ",
"      OX+############%@-::::=   ",
"     OOXX+##########%@-::::-=   ",
"     OOOOX+@######%%@-:::::--   ",
"      O$$OXO@;%>;%@---::::---   ",
"       O$$OOX$------::::::---   ",
"         $=-=$$::::::::::---$   ",
"         O$---:::::::::-----O   ",
"           OOO$===-::------$    ",
"                    $----$O     ",
"                      O         ",
"                                ",
"                                "};
