/* XPM */
static char * SAVE_xpm[] = {
/* width height ncolors chars_per_pixel */
"32 32 7 1",
/* colors */
" 	s None	c None",
".	c black",
"X	c red",
"o	c red",
"O	c grey",
"+	c white",
"@	c grey50",
/* pixels */
"                                ",
"                                ",
"            ........            ",
"         ...XXXXXXXX...         ",
"        .XXXXXXXXXXXXXX.        ",
"       .XXXXoooooooXXXXX..      ",
"     ..XXXooOOOOOOOooXX.++.     ",
"    .++.XoOOoooooooOOo.++++.    ",
"    .+++.OooXXXXXXXooO.++++.    ",
"   .+++++.oXX.....XXo.++++++.   ",
"  .++++++.X..     ..X.+++++++.  ",
"  .+++++O@.         .O+++++++.  ",
"  .+++++@.           .+++++++.  ",
" .+++++O@...   ..   ..+++++++O. ",
" .+++++O..  . .  . .  .++++++O. ",
" .+++++O. .   .  .  . .++++++O. ",
" .+++++O.  .  .  .   ..++++++O. ",
" .+++++O..  . .  . .  .++++++O. ",
" .+++++O. ..   ..   ...++++++O. ",
" .++++++O.           .++++++OO. ",
" .O++++++.           .++++++OO. ",
"  .+++++++.         .++++++OO.  ",
"  .O+++++.o..     ..o.+++++O@.  ",
"  .OO+++.oOoo.....ooOo.+++OO@.  ",
"   .O+++.XoOOoooooOOoX.+++O@.   ",
"    .O+.XXXooOOOOOooXXX.+OO.    ",
"    .OO.XXXXXoooooXXXXX.OO@.    ",
"     .O.XXXXXXXXXXXXXXX.O@.     ",
"      ..XXXXXXXXXXXXXXXX..      ",
"        .XXXXXXXXXXXXXX.        ",
"         ...XXXXXXXX...         ",
"            ........            "};
