/* XPM */
static char * Pplc_var_xpm[] = {
"32 32 9 1",
" 	c None",
".	c black",
"X	c red",
"o	c white",
"O	c blue",
"+	c yellow",
"@	c blue",
"#	c grey50",
"$	c magenta",
"                                ",
"       .                        ",
"   XXXX...                      ",
"    ..XXX..                     ",
"  .....XXX.......XXXX           ",
" ...XXXXX......XXX....          ",
" ...XXXXXXXXXXX....             ",
" ...XXXXXX...XXX....            ",
"  ..XX........XXX......         ",
" ..X..ooooo..............       ",
" .X..o.....o.....OOooo+...      ",
" ...o.ooooo.o..OOOOOOo++o..     ",
" ....ooooooo..OOO.OOOo+++o..    ",
" ...ooo@@ooo.oO....O.o+.+oo.    ",
"  ..ooO.@Oo..oO.o...Oo+.+oo..   ",
"  ..ooO..Oo.ooO...#.Oo.++ooo.   ",
"  ..ooo@@Oo.ooOO...Ooo.++ooo.   ",
" ...ooooooo.ooOOOO.Oo.++oooo.   ",
".++#.oooooo.oooOO.Ooo.++oooo.   ",
"++++##ooooo.ooooo.+o.+++oooo.   ",
"++.++###..#..ooo.+++++++ooo..   ",
".+.+++######.o++.++.+++oooo.o   ",
".+.++.++++++..o++++++++ooo.o#   ",
" ..++.+++++++..++++++++oo.o##   ",
"  .+..++++++++...oo++++..o###   ",
"  .+..++++++++..........o##.X   ",
"  ..++.++++++...+......o##..X...",
"  .++++......++.++.   .##.XX..++",
"...++++++++++++.++.   ......++++",
"........++++....+.    ..  .+++.+",
".$$$$$$..++..$$....       .....+",
".$$$$$$$.+..$$$$...         ..++"};
