/* XPM */
static char * PRINT4_xpm[] = {
/* width height ncolors chars_per_pixel */
"32 32 6 1",
/* colors */
" 	s None	c None",
".	c black",
"X	c grey",
"o	c white",
"O	c grey50",
"+	c red",
/* pixels */
"                                ",
"                                ",
"                                ",
"                                ",
"                                ",
"                                ",
"                                ",
"            .............       ",
"           .XoooooooooooX.      ",
"          .Ooooooooooooo.       ",
"          .oooO..ooooooO.       ",
"         .OoooO..Oooooo.        ",
"     .....oooo.O..ooooO........ ",
"    .XXO.OoooO.o..Oooo.OXXXXXO. ",
"   .XXO..oooo.OoO..ooX....XXoO. ",
"  .XXO...................XXoOO. ",
" .XXXXXXXXXXXXXXXXXXXXXXXXoOOO. ",
".oooooooooooooooooooooooooOOOO. ",
".oXXXXXXXXXXXXXXXXXXXXXXXXOOOO. ",
".oXXXXXXXXXXXXXXXXXXX++.XXOOOO. ",
".oXXXXXXXXXXXXXXXXXXXXoooXOOOO. ",
".oXXXXXXXXXXXXXXXXXXX...XXOOOO. ",
".oXXXXXXXXXXXXXXXXXXXXoooXOOO.. ",
".oXX................XXXXXXOO....",
".oX.OXXOOXXXOOXXXoO.OXXXXXO.O.OO",
".O.OXXOOOXXOOOXXoOO........O.OOO",
" .ooooooooooooooOO.OOXXXXXO.OOO.",
" .OOOOOOOOOOOOOOO.OOXXXXXX.OOO. ",
" .XXXXXXXXXXXXXO..........OOO.  ",
" ................OOOOOOOOOOO.   ",
"  .OOOOOOOOOOOOOOOO.........    ",
"  .................             "};
