#define DEFLPRT_width 72
#define DEFLPRT_height 45
static char DEFLPRT_bits[] = {
 0x00,0x00,0x00,0x00,0x00,0x00,0x00,0x00,0x00,0x00,0x00,0x00,0x00,0x00,0x00,
 0x00,0x00,0x00,0x00,0x00,0x00,0x00,0x00,0x00,0x00,0x00,0x00,0x00,0x00,0x00,
 0x00,0x00,0x00,0x00,0x00,0x00,0x00,0x00,0x00,0x00,0x00,0x00,0x00,0x00,0x00,
 0x00,0x00,0x00,0x00,0x00,0x00,0x00,0x00,0x00,0x00,0x00,0x00,0x00,0x3f,0x00,
 0x00,0x00,0x00,0x00,0x00,0x00,0x80,0xef,0x01,0x00,0x00,0x00,0x00,0x00,0x00,
 0x7f,0x18,0x0f,0x00,0x00,0x00,0x00,0x00,0x80,0x00,0xf0,0x1c,0x00,0x00,0x00,
 0x00,0x00,0x60,0x80,0xf7,0x2d,0x00,0x00,0x00,0x00,0x00,0x60,0x90,0xe7,0x3f,
 0x00,0x00,0x00,0x00,0x00,0x60,0x09,0xe0,0xcd,0x00,0x00,0x00,0x00,0x00,0x80,
 0x0f,0x20,0xff,0x00,0x00,0x00,0x00,0x00,0x00,0x87,0xf0,0x3f,0x01,0x00,0x00,
 0x00,0x00,0x00,0x7f,0xd0,0xf2,0x0f,0x00,0x00,0x00,0x00,0x80,0x07,0x1e,0xdf,
 0xdd,0x03,0x00,0x00,0x00,0x60,0xf9,0x0f,0xf0,0x7f,0x1e,0x00,0x00,0x00,0xe0,
 0x96,0x0f,0xc0,0xbf,0x1d,0x00,0x00,0x00,0xe0,0x9f,0x18,0x00,0x60,0x1e,0x00,
 0x00,0x00,0x60,0xf1,0x3e,0x00,0xc0,0x03,0x00,0x00,0x00,0x80,0x8f,0xff,0x00,
 0x00,0x00,0x00,0x00,0x00,0x00,0x7f,0xd7,0x01,0x00,0x00,0x00,0x00,0x00,0x00,
 0xf7,0xe0,0x1f,0x00,0x00,0x00,0x00,0x00,0x80,0x08,0xe0,0xfd,0x00,0x00,0x00,
 0x00,0x00,0x80,0x08,0xc0,0xef,0x0f,0x00,0x00,0x00,0x00,0x80,0x08,0xc0,0x3e,
 0x3f,0x00,0x00,0x00,0x00,0x60,0x07,0x00,0xf3,0xf3,0x01,0x00,0x00,0x00,0x60,
 0x07,0x00,0xdf,0xdf,0x03,0x00,0x00,0x00,0x60,0x07,0x00,0xfe,0x61,0x1e,0x00,
 0x00,0x00,0x90,0x00,0x00,0x30,0x8f,0x1f,0x00,0x00,0x00,0x90,0x00,0x00,0xe0,
 0x0f,0x3e,0x00,0x00,0x00,0x90,0x00,0x00,0xc0,0x0f,0x3c,0x00,0x00,0x00,0x68,
 0x00,0x00,0xc0,0x1e,0x20,0x00,0x00,0x00,0x68,0x00,0x00,0x00,0x1f,0x20,0x00,
 0x00,0x00,0x68,0x00,0x00,0x00,0x1d,0x40,0x00,0x00,0x00,0x14,0x00,0x00,0x00,
 0x1e,0x40,0x00,0x00,0x00,0x14,0x00,0x00,0x00,0x10,0x00,0x00,0x00,0x00,0x00,
 0x00,0x00,0x00,0x00,0x00,0x00,0x00,0x00,0x00,0x00,0x00,0x00,0x00,0x00,0x00,
 0x00,0x00,0x00,0x00,0x00,0x00,0x00,0x00,0x00,0x00,0x00,0x00,0x00,0x00,0x00,
 0x00,0x00,0x00,0x00,0x00,0x00,0x00,0x00,0x00,0x00,0x00,0x00,0x00,0x00,0x00,
 0x00,0x00,0x00,0x00,0x00,0x00,0x00,0x00,0x00,0x00,0x00,0x00,0x00,0x00,0x00
 };
