#define DELCOL_width 50
#define DELCOL_height 30
static char DELCOL_bits[] = {
   0x00, 0x00, 0x00, 0x00, 0x00, 0x00, 0x00, 0x00, 0x00, 0x00, 0x00, 0x00,
   0x00, 0x00, 0x00, 0x30, 0x30, 0x00, 0x00, 0x00, 0x00, 0x00, 0x60, 0x18,
   0x00, 0x00, 0x00, 0x00, 0x00, 0x60, 0x18, 0x00, 0x00, 0x00, 0x00, 0x90,
   0xc0, 0x0c, 0x24, 0x20, 0x01, 0x00, 0x90, 0x80, 0x04, 0x24, 0x20, 0x01,
   0x00, 0x90, 0x80, 0x07, 0x24, 0x20, 0x01, 0x00, 0x9f, 0xff, 0xff, 0xe7,
   0x3f, 0xff, 0x03, 0x90, 0x88, 0x07, 0x24, 0x20, 0x01, 0x00, 0x90, 0x88,
   0x07, 0x24, 0x20, 0x01, 0x00, 0x90, 0x88, 0x04, 0x24, 0x20, 0x01, 0x00,
   0x00, 0xc8, 0x0c, 0x00, 0x00, 0x00, 0x00, 0x00, 0x68, 0x18, 0x00, 0x00,
   0x00, 0x00, 0x00, 0x68, 0x18, 0x00, 0x00, 0x00, 0x00, 0x00, 0x38, 0x60,
   0x00, 0x00, 0x00, 0x00, 0x90, 0x08, 0xe0, 0x00, 0x00, 0x00, 0x00, 0x90,
   0x08, 0xc0, 0x01, 0x00, 0x00, 0x00, 0x90, 0x08, 0x80, 0x07, 0x00, 0x00,
   0x00, 0x9f, 0x0f, 0x00, 0x19, 0x00, 0x00, 0x00, 0x90, 0x00, 0x00, 0x27,
   0x00, 0x00, 0x00, 0x90, 0x00, 0x00, 0x42, 0x00, 0x00, 0x00, 0x90, 0x00,
   0x00, 0x86, 0x01, 0x00, 0x00, 0x00, 0x00, 0x00, 0x4c, 0x02, 0x00, 0x00,
   0x00, 0x00, 0x00, 0x38, 0x04, 0x00, 0x00, 0x00, 0x00, 0x00, 0x50, 0x08,
   0x00, 0x00, 0x00, 0x00, 0x00, 0xb0, 0x10, 0x00, 0x00, 0x00, 0x00, 0x00,
   0x60, 0x09, 0x00, 0x00, 0x00, 0x00, 0x00, 0xc0, 0x16, 0x00, 0x00, 0x00,
   0x00, 0x00, 0x80, 0x03, 0x00, 0x00};
