/* XPM */
static char * trash2A_xpm[] = {
/* width height ncolors chars_per_pixel */
"32 32 6 1",
/* colors */
" 	s None	c None",
".	c grey50",
"X	c white",
"o	c grey",
"O	c grey",
"+	c grey20",
/* pixels */
"          ...  ..               ",
"       ...XXX..X.  ...          ",
"    ...XXX...XXX...XXX..        ",
"  ..XXX....XXXXX.XXXXXXX.       ",
" .XX...XX.X.XoXX.XoX..XX.       ",
" .X...oXX.X.oXoXX.X.XX.X.       ",
" .XX..ooX.XX.oXoX.o.XXX..       ",
" .OOXX..o.XXX.oXo..XXXXX...     ",
" .OOOOXX..XXXX.oX.XXXXXXX.X..   ",
"  .OOOOOXX..XX.o.XXXXXXXoooXX   ",
"  .OOOOOOOXX...oo.XXXXXooooXX   ",
"  .OOOOOOOOOXX..o.XXooooXXX++   ",
"  .OOOOOOOOOOOXX..oooXXX+++++   ",
"   .OOOOOOOOOOOOXXXXX+++++++    ",
"   .OOOOOOOOOOOOOOO+++++++++    ",
"   .OOOOOOOOOOOOOOO+++++++++    ",
"   .OOOOOOOOOOOOOOO+++++++++    ",
"    .OOOOOOOOOOOOOO++++++++     ",
"    .OOOOOOOOOOOOOO++++++++     ",
"    .OOOOOOOOOOOOOO++++++++     ",
"    .OOOOOOOOOOOOOO++++++++     ",
"     .OOOOOOOOOOOOO+++++++      ",
"     .OOOOOOOOOOOOO+++++++      ",
"     .OOOOOOOOOOOOO+++++++      ",
"      ..OOOOOOOOOOO+++++++      ",
"        ..OOOOOOOOO++++++       ",
"          ..OOOOOOO++++++       ",
"            ..OOOOO++++++       ",
"              ..OOO++++++       ",
"                ..O++++         ",
"                  +++           ",
"                                "};
