#define DELROW_width 50
#define DELROW_height 30
static char DELROW_bits[] = {
   0x03, 0x00, 0x00, 0x00, 0x00, 0x00, 0x03, 0x1c, 0x00, 0x00, 0x00, 0x00,
   0xe0, 0x00, 0x60, 0x00, 0x00, 0x00, 0x00, 0x1c, 0x00, 0x80, 0x03, 0x00,
   0x00, 0x80, 0x03, 0x00, 0x00, 0x1c, 0x00, 0x00, 0x70, 0x00, 0x00, 0x90,
   0xe0, 0x04, 0x24, 0x2e, 0x01, 0x00, 0x90, 0x80, 0x07, 0xe4, 0x21, 0x01,
   0x00, 0x90, 0x80, 0x1c, 0x3c, 0x20, 0x01, 0x00, 0x9f, 0xff, 0xfc, 0xe7,
   0x3f, 0xff, 0x03, 0x90, 0x88, 0x74, 0x27, 0x20, 0x01, 0x00, 0x90, 0x88,
   0x0e, 0x3c, 0x20, 0x01, 0x00, 0x90, 0xc8, 0x05, 0xe4, 0x20, 0x01, 0x00,
   0x00, 0x38, 0x00, 0x00, 0x0f, 0x00, 0x00, 0x00, 0x0f, 0x00, 0x00, 0x1c,
   0x00, 0x00, 0xe0, 0x08, 0x00, 0x00, 0x38, 0x00, 0x00, 0x1c, 0x08, 0x00,
   0x00, 0xf0, 0x00, 0x00, 0x93, 0x08, 0x00, 0x00, 0x20, 0x03, 0x00, 0x90,
   0x08, 0x00, 0x00, 0xe0, 0x04, 0x00, 0x90, 0x08, 0x00, 0x00, 0x40, 0x08,
   0x00, 0x9f, 0x0f, 0x00, 0x00, 0xc0, 0x30, 0x00, 0x90, 0x00, 0x00, 0x00,
   0x80, 0x49, 0x00, 0x90, 0x00, 0x00, 0x00, 0x00, 0x87, 0x00, 0x90, 0x00,
   0x00, 0x00, 0x00, 0x0a, 0x01, 0x00, 0x00, 0x00, 0x00, 0x00, 0x16, 0x02,
   0x00, 0x00, 0x00, 0x00, 0x00, 0x2c, 0x01, 0x00, 0x00, 0x00, 0x00, 0x00,
   0xd8, 0x02, 0x00, 0x00, 0x00, 0x00, 0x00, 0x70, 0x00, 0x00, 0x00, 0x00,
   0x00, 0x00, 0x00, 0x00, 0x00, 0x00, 0x00, 0x00, 0x00, 0x00, 0x00, 0x00,
   0x00, 0x00, 0x00, 0x00, 0x00, 0x00};
