#define DINT_REA_width 16
#define DINT_REA_height 16
static char DINT_REA_bits[] = {
   0x00, 0x00, 0x80, 0x00, 0xc0, 0x00, 0x80, 0x00, 0x80, 0x00, 0x80, 0x00,
   0xc0, 0x01, 0x00, 0x00, 0x00, 0x00, 0x00, 0x00, 0x10, 0x04, 0x18, 0x0a,
   0x10, 0x0a, 0x10, 0x0a, 0x10, 0x0a, 0xb8, 0x04};
