#define DIV_width 16
#define DIV_height 16
static char DIV_bits[] = {
   0x00, 0x00, 0x00, 0x00, 0x00, 0x00, 0x00, 0x00, 0x00, 0x01, 0x80, 0x03,
   0x00, 0x01, 0x00, 0x00, 0x00, 0x00, 0x00, 0x00, 0x00, 0x00, 0x00, 0x01,
   0x80, 0x03, 0x00, 0x01, 0x00, 0x00, 0x00, 0x00};
