/* XPM */
static char * WRITE2_xpm[] = {
/* width height ncolors chars_per_pixel */
"32 32 8 1",
/* colors */
" 	s None	c None",
".	c black",
"X	c blue",
"o	c white",
"O	c grey",
"+	c grey50",
"@	c red",
"#	c red",
/* pixels */
"                                ",
"                         .      ",
"                        .X.     ",
"                       .X.      ",
"                      .X.       ",
"                     .X.        ",
"                    .X.         ",
"                .. .X.          ",
"               .oo.X...         ",
"        .......oO.X.ooO.        ",
"     ...oo..O.oO.X.ooooo..      ",
"  ...oooo.OO.oO.X.OOoooooO....  ",
"..oooooo.OOo.O.X..++Ooooooo.@#..",
".O..ooo.OOoO..X.o.+OOoooooo.#@#.",
".OOO.o.OOoOo......Ooooooooo.@#@.",
".OoOO.OOoOO..oooooooOOOOooO.#@#.",
".oOoOOOoOo.X....OOOOOO..OO.#@#@.",
".OoOoOoOoO..oXoX......OO..#@#@. ",
".oOoOoOoX.OoOoOoOoOOOOOO.#@#@.  ",
".OoOoOoOoOoOoOoOoOoOoOOO.....   ",
".oOoOoOXOoOoOoOoOoOoOoOo.       ",
".OoOoOoOXOoOoOoOoOoOoOoO.       ",
".oOoOXXXOoOoOoOoOoOoOoOo.       ",
".OoOoOoOoOoOoOoOoOoOoOoO.       ",
".oOXOXOoOoOoOoOoOoOoOoOo.       ",
".OoOXOoOoOoOoOoOoOoO.....       ",
".oOoOoOoOoOoOoOoOoOo.ooo.       ",
".OoOoOoOoOoOoOoOoOoO.oo.        ",
".oOoOoOoOoOoOoOoOoOO.o.         ",
"......................          ",
"                                ",
"                                "};
