#define EXP_width 16
#define EXP_height 16
static char EXP_bits[] = {
   0x02, 0x02, 0x02, 0x02, 0x02, 0x02, 0x02, 0x02, 0x02, 0x02, 0x02, 0x01,
   0x02, 0x01, 0x02, 0x01, 0x82, 0x00, 0x82, 0x00, 0x42, 0x00, 0x22, 0x00,
   0x12, 0x00, 0x0e, 0x00, 0xff, 0xff, 0x02, 0x00};
