#define EXPT_width 16
#define EXPT_height 16
static char EXPT_bits[] = {
   0x00, 0x00, 0x00, 0x00, 0x00, 0x12, 0x00, 0x12, 0x00, 0x14, 0x00, 0x08,
   0x00, 0x04, 0x00, 0x00, 0x04, 0x01, 0x88, 0x00, 0x50, 0x00, 0x20, 0x00,
   0x50, 0x00, 0x88, 0x00, 0x04, 0x01, 0x00, 0x00};
