/* XPM */
static char * filesys_xpm[] = {
/* filesys pixmap
* width height ncolors chars_per_pixel */
"32 32 10 1",
/* colors */
" 	s None	m white	c None",
".	s s_black	m black	c black",
"X	s s_blue	m white	c blue",
"o	s s_darkgray	m black	c gray50",
"O	s s_cyan	m white	c cyan",
"+	s s_yellow	m white	c yellow",
"@	s s_white	m white	c white",
"#	s s_red	m white	c red",
"$	s s_magenta	m white	c magenta",
"%	s s_green	m white	c green",
/* pixels */
"                                ",
"   ......                       ",
"  .XXXXXX.                      ",
" .oXX...............            ",
" .oo.OOOOOO.+@+@+@+@.           ",
" .o.oOOOOOO+..........          ",
" ...ooo......@+@+@+@+@.         ",
" .@.o..######.@+@+@+@+.         ",
" .+...o##...............        ",
" .@.@.oo.$$$$$$.+@+@+@+@.       ",
" .+.+.o.o$$$$$$+..........      ",
" .@.@...ooo......@+@+@+@+@.     ",
" .+.+.@.o..%%%%%%.@+@+@+@+.     ",
" .@.@.+...o%%...............    ",
" .+.+.@.@.oo.XXXXXX.+@+@+@+@.   ",
" .@.@.+.+.o.oXXXXXXo..........  ",
" .+.+.@.@...ooooooo.+@+@+@+@+@. ",
"  ..@.+.+.@.o......+@+@+@+@+@+. ",
"   .+.@.@.+..@+@+@+@+@+@+@+@+@. ",
"    ..+.+.@.@+@+@+@+@+@+@+@+@+. ",
"     .@.@.+.+@+@+@+@+@+@+@+@+@. ",
"     .+.+.@.@+@+@+@+@+@+@+@+@+. ",
"      ..@.+.+@+@+@+@+@+@+@+@+@. ",
"       .+.@.@+@+@+@+@+@+@+@+@+. ",
"        ..+.+@+@+@+@+@+@+@+@+@. ",
"          @.@+@+@+@+@+@+@+@+@+. ",
".... .... +.+@+@+@+@+@+@+@+@+@. ",
".       . ..@+@+@+@+@+@+@+@+@+. ",
"...   ..   .+@+@+@+@+@+@+@+@+@. ",
".       .   ................... ",
".    .  .                       ",
".     ..                        "};
