/* XPM */
static char * LINK1_xpm[] = {
/* width height ncolors chars_per_pixel */
"32 32 4 1",
/* colors */
" 	s None	c None",
".	c cyan",
"X	c grey50",
"o	c white",
/* pixels */
"           .                    ",
" X         .                    ",
"XXXX       .                    ",
"XXoXX      .                    ",
" XXoXX     .                    ",
"  XXoXX    .                    ",
"   XXoXX   .                    ",
"    XXoXX X.XX                  ",
"     XXo.X .XX.                 ",
"      XXo.X. .oX                ",
"      XXXo...XXoX               ",
"...........X...........         ",
"      XoXX...  XXoX             ",
"      XoX.X. .  XXoX            ",
"      XX.X .  .  XXoX           ",
"       XXoX.       Xo           ",
"        XXo.   XXX Xo           ",
"         XX.X  XoXX             ",
"          X.oX XXoXX            ",
"           .XoX XXoXX           ",
"           .XXoXXXXoXX          ",
"           . XXXXXXXoXX         ",
"           .       XXoXX XXXX   ",
"           .        XXoXX  XXX  ",
"           .         XXoXX  XoX ",
"           .         XXXoXX XXoX",
"           .         XXXXoXX XXo",
"           .         XoXXXXX  XX",
"           .         XoX XX    X",
"                     XXoX       ",
"                      XXoX      ",
"                       XXoX     "};
