/* XPM */
static char * freeall_xpm[] = {
/* width height ncolors chars_per_pixel */
"32 32 4 1",
/* colors */
" 	c white",
".	c grey50",
"X	s None	c None",
"o	c cyan",
/* pixels */
" ..XXXoXXXXXXXXXXXXXXXXXXXXXXXXX",
". ..X.o..XXXXXXXXXXXXXXXXXXXXXXX",
".. o.Xo..oXXXXXXXXXXXXXXXXXXXXXX",
"X.. o.oXo .XXXXXXXXXXXXXXXXXXXXX",
"X... ooo.. .XXXXXXXXXXXXXXXXXXXX",
"oooooo.oooooooooooXXXXXXXXXXXXXX",
"X. ..oooXX.. .XXXXXXXXXXXXXXXXXX",
"X. .o.oXoXX.. .XXXXXXXXXXXXXXXXX",
"X..o.XoXXoXX.. .XXXXXXXXXXXXXXXX",
"XX.. .oXXXXXXX. XXXXXXXXXXXXXXXX",
"XXX.. oXXX...X. XXXXXXXXXXXXXXXX",
"XXXX..o.XX. ..XXXXXXXXXXXXXXXXXX",
"XXXXX.o .X.. ..XXXXXXXXXXXXXXXXX",
"XXXXXXo. .X.. ..XXXXXXXXXXXXXXXX",
"XXXXXXo.. .... ..XXXXXXXXXXXXXXX",
"XXXXXXoX....... ..XXXoXXXXXXXXXX",
"XXXXXXoXXXXXXX.. ..X.o..XXXXXXXX",
"XXXXXXoXXXXXXXX.. o.Xo..oXXXXXXX",
"XXXXXXXXXXXXXXXX.. o.oXo .XXXXXX",
"XXXXXXXXXXXXXXXX... ooo.. .XXXXX",
"XXXXXXXXXXXXXXXoooooo.oooooooooo",
"XXXXXXXXXXXXXXXX. ..oooXX.. .XXX",
"XXXXXXXXXXXXXXXX. .o.oXoXX.. .XX",
"XXXXXXXXXXXXXXXX..o.XoXXoXX.. .X",
"XXXXXXXXXXXXXXXXX.. .oXXXXXXX. X",
"XXXXXXXXXXXXXXXXXX.. oXXX...X. X",
"XXXXXXXXXXXXXXXXXXX..o.XX. ..XXX",
"XXXXXXXXXXXXXXXXXXXX.o .X.. ..XX",
"XXXXXXXXXXXXXXXXXXXXXo. .X.. ..X",
"XXXXXXXXXXXXXXXXXXXXXo.. .... ..",
"XXXXXXXXXXXXXXXXXXXXXoX....... .",
"XXXXXXXXXXXXXXXXXXXXXoXXXXXXX.. "};
