#define GE_width 16
#define GE_height 16
static char GE_bits[] = {
   0x00, 0x00, 0x00, 0x00, 0x00, 0x00, 0x02, 0x00, 0x0c, 0x00, 0x10, 0x00,
   0x60, 0x00, 0x80, 0x79, 0x00, 0x02, 0x80, 0x79, 0x60, 0x00, 0x10, 0x00,
   0x0c, 0x00, 0x02, 0x00, 0x00, 0x00, 0x00, 0x00};
