#define GT_width 16
#define GT_height 16
static char GT_bits[] = {
   0x00, 0x00, 0x00, 0x00, 0x00, 0x00, 0x10, 0x00, 0x60, 0x00, 0x80, 0x00,
   0x00, 0x03, 0x00, 0x0c, 0x00, 0x10, 0x00, 0x0c, 0x00, 0x03, 0x80, 0x00,
   0x60, 0x00, 0x10, 0x00, 0x00, 0x00, 0x00, 0x00};
