/* XPM */
static char *info4[] = {
/* info4 pixmap
* width height ncolors chars_per_pixel */
"32 32 17 1 ",
/* colors */
"0 c black       m black         s s_black ",
"r c red        m black         s s_darkred ",
"g c green      m black         s s_darkgreen ",
"y c yellow     m black         s s_darkyellow ",
"b c blue       m black         s s_darkblue ",
"m c magenta    m black         s s_darkmagenta ",
"c c cyan       m black         s s_darkcyan ",
"a c gray50      m black         s s_darkgray ",
"A c gray75      m white         s s_gray ",
"R c red         m white         s s_red ",
"G c green       m white         s s_green ",
"Y c yellow      m white         s s_yellow ",
"B c blue        m white         s s_blue ",
"M c magenta     m white         s s_magenta ",
"C c cyan        m white         s s_cyan ",
"W c white       m white         s s_white ",
"  c None        m white         s None ",
/* pixels */
"                                ",
"              0000              "
"             0mmmm0A            ",
"            0mYYMmm0A           ",
"            0mYMMMm0AA          ",
"            0mMMMMm0AA          ",
"            0mmMMmm0AA          ",
"            00mmmm00AA          ",
"             000000AA           ",
"              000000            ",
"             00mmmm0A           ",
"           00mmmYYm0AA          ",
"          0mmmYYMMm0AA          ",
"          0mYYMMMMm0AA          ",
"          0mmmYMMMm0AA          ",
"          000mYMMMm0AA          ",
"            0mYMMMm0AA          ",
"            0mYMMMm0AA          ",
"            0mYMMMm0AA          ",
"            0mYMMMm0AA          ",
"            0mYMMMm0AA          ",
"            0mYMMMm0AA          ",
"            0mYMMMm0AA          ",
"           0mmYMMMmm0A          ",
"          0mmYMMMMMmm0          ",
"          0mYMMMMMMMm0A         ",
"          0mmmmmmmmmm0AA        ",
"          000000000000AA        ",
"            AAAAAAAAAAAA        ",
"            AAAAAAAAAAAA        ",
"                                ",
"                                ",
};