#define JMPCNB_width 16
#define JMPCNB_height 16
static char JMPCNB_bits[] = {
   0x00, 0x00, 0x00, 0x00, 0x00, 0x00, 0x00, 0x00, 0x00, 0x00, 0x00, 0x0a,
   0x00, 0x14, 0xc0, 0x29, 0xff, 0x57, 0xc0, 0x29, 0x00, 0x14, 0x00, 0x0a,
   0x00, 0x00, 0x00, 0x00, 0x00, 0x00, 0x00, 0x00};
