#define JMPCB_width 16
#define JMPCB_height 16
static char JMPCB_bits[] = {
   0x00, 0x00, 0x00, 0x00, 0x00, 0x00, 0x00, 0x00, 0x00, 0x00, 0x00, 0x0a,
   0x00, 0x14, 0x00, 0x28, 0xff, 0x57, 0x00, 0x28, 0x00, 0x14, 0x00, 0x0a,
   0x00, 0x00, 0x00, 0x00, 0x00, 0x00, 0x00, 0x00};
