/* XPM */
static char * LABELB_xpm[] = {
"50 30 2 1",
" 	c white",
".	c black",
"                                                  ",
"                                                  ",
"                                                  ",
"                                                  ",
"                                                  ",
"                                                  ",
"                                                  ",
"                                                  ",
"                                                  ",
"                                                  ",
"      .             .              ..             ",
"      .             .               .             ",
"      .             .               .       .     ",
"      .       ....  . ...   ....    .      ...    ",
"      .           . ..   . .    .   .       .     ",
"      .       ..... .    . ......   .             ",
"      .      .    . .    . .        .             ",
"      .      .   .. ..   . .    .   .       .     ",
"      ......  ... . . ...   ....  .....    ...    ",
"                                            .     ",
"                                                  ",
"                                                  ",
"                                                  ",
"                                                  ",
"                                                  ",
"                                                  ",
"                                                  ",
"                                                  ",
"                                                  ",
"                                                  "};
