#define LE_width 16
#define LE_height 16
static char LE_bits[] = {
   0x00, 0x00, 0x00, 0x00, 0x00, 0x00, 0x00, 0x02, 0x80, 0x01, 0x40, 0x00,
   0x30, 0x00, 0x0c, 0x78, 0x02, 0x00, 0x0c, 0x78, 0x30, 0x00, 0x40, 0x00,
   0x80, 0x01, 0x00, 0x02, 0x00, 0x00, 0x00, 0x00};
