#define LOG_width 16
#define LOG_height 16
static char LOG_bits[] = {
   0x02, 0x00, 0x02, 0x00, 0x02, 0x00, 0x02, 0x00, 0x02, 0x00, 0x02, 0x00,
   0x02, 0xf8, 0x02, 0x07, 0xc2, 0x00, 0x22, 0x00, 0x12, 0x00, 0x0a, 0x00,
   0x06, 0x00, 0x06, 0x00, 0xff, 0xff, 0x02, 0x00};
