#define LT_width 16
#define LT_height 16
static char LT_bits[] = {
   0x00, 0x00, 0x00, 0x00, 0x00, 0x00, 0x00, 0x08, 0x00, 0x06, 0x00, 0x01,
   0xc0, 0x00, 0x30, 0x00, 0x08, 0x00, 0x30, 0x00, 0xc0, 0x00, 0x00, 0x01,
   0x00, 0x06, 0x00, 0x08, 0x00, 0x00, 0x00, 0x00};
