/* XPM */
static char *magic[] = {
/* magic pixmap
* width height ncolors chars_per_pixel */
"32 32 17 1 ",
/* colors */
"0 c black       m black         s s_black ",
"r c red        m black         s s_darkred ",
"g c green      m black         s s_darkgreen ",
"y c yellow     m black         s s_darkyellow ",
"b c blue       m black         s s_darkblue ",
"m c magenta    m black         s s_darkmagenta ",
"c c cyan       m black         s s_darkcyan ",
"a c gray50      m black         s s_darkgray ",
"A c gray75      m white         s s_gray ",
"R c red         m white         s s_red ",
"G c green       m white         s s_green ",
"Y c yellow      m white         s s_yellow ",
"B c blue        m white         s s_blue ",
"M c magenta     m white         s s_magenta ",
"C c cyan        m white         s s_cyan ",
"W c white       m white         s s_white ",
"  c None        m white         s None ",
/* pixels */
"      C   C                     ",
"       BYB                      "
"   bC  0Y0  Cb                  ",
"   CY0W0Y0W0YC aa aa            ",
"    0Y00Y00Y0aaMaGaCa C         ",
" C  W0MCWCM0a WC CaGWa          ",
"  B000CWYWC000B    MaaaM        ",
"  YYYYWYBYWYYYY   C GCaa C      ",
"  B000CWYWC000B     aaWGa       ",
" C  W0MCWCM0   C    a aCa       ",
"    0Y00Y00YC0        GaCaC     ",
"   CY0W0Y0WCY00     C MCaa      ",
"   bC  0Y0 00BB0       aG  M    ",
"       BYB  BBBB0    C aCa C    ",
"      C   C bBBBB0     a a      ",
"a            bBBCB0 C MGaa      ",
"G W           bBWCB0WaaCaMC     ",
" C a           bBWCB0WCaCG      ",
"Ma C aC         bBWCB0aWa       ",
"a Caa Ma         bBWCB0GWMC     ",
" GaGaGW G C     C bBWCBbC       ",
"GaCWaCaCaGaC C    abBWCBb       ",
" M M aGaCaC a a aGMCbBWCBb      ",
"C   CaMaWaaGWaGaCaWGabBWCBb     ",
"  C   CWaGWaaCaWaGCa  bBWCBb    ",
"       MC aWGaCM  aWaC bBWCBb   ",
"     C     C  a Ca M    bBWCBb  ",
"         C  M      C     bBWCBb ",
"             C            bBWCb ",
"                           bBbb ",
"                            bb  ",
"                                ",
};