#define MUL_width 16
#define MUL_height 16
static char MUL_bits[] = {
   0x00, 0x00, 0x00, 0x00, 0x00, 0x00, 0x04, 0x10, 0x08, 0x08, 0x10, 0x04,
   0x20, 0x02, 0x40, 0x01, 0x80, 0x00, 0x40, 0x01, 0x20, 0x02, 0x10, 0x04,
   0x08, 0x08, 0x04, 0x10, 0x00, 0x00, 0x00, 0x00};
