#define NE_width 16
#define NE_height 16
static char NE_bits[] = {
   0x00, 0x00, 0x00, 0x00, 0x00, 0x00, 0x00, 0x00, 0x00, 0x00, 0x00, 0x10,
   0x00, 0x0c, 0xf8, 0x1f, 0x80, 0x01, 0xf8, 0x1f, 0x30, 0x00, 0x08, 0x00,
   0x00, 0x00, 0x00, 0x00, 0x00, 0x00, 0x00, 0x00};
