/* XPM */
static char * notepd_xpm[] = {
/* notepd pixmap
* width height ncolors chars_per_pixel */
"32 32 9 1",
/* colors */
" 	s None	m white	c None",
".	s s_black	m black	c black",
"X	s s_white	m white	c white",
"o	s s_cyan	m white	c cyan",
"O	s s_darkcyan	m black	c cyan",
"+	s s_blue	m white	c blue",
"@	s s_darkgray	m black	c gray50",
"#	s s_gray	m white	c gray75",
"$	s s_darkblue	m black	c blue",
/* pixels */
"                           .... ",
"                          .X.oO.",
"  ...                    .X.oO+.",
" .oOO....................@.oO+. ",
".OoOOO.XXXX@XXXXXXXXXXX.X.oO+.  ",
".OoOOO.@@@@@@@@@@@@@@@@@.oO+.#  ",
".OoOO.oXXXX@XXXXXXXXXXX.oO+.#.  ",
".OoOO..XXXX@XXXXXXXXXX.o$+.##.  ",
".OoOOO.oooo@ooooooooo.oO+.#.#.  ",
".OoOOO.@@@@@@@@@@@@@.oO+.##.#.  ",
".OoOO.oXXXX@XXXXXXX.oO+.@@X.#.  ",
".OoOO..XXXX@XXXXXX.oO+.@@XX.#.  ",
".OoOOO.oooo@ooooo.oO+.OOooo.#.  ",
".OoOOO.@@@@@@@@@.oO+.##@@@@.#.  ",
".OoOO.oXXXX@XXX.oO+.@@XXXXX.#.  ",
".OoOO..XXXX@XX.oO+.@@XXXXXX.#.  ",
".OoOOO.oooo@o.oO+.OOooooooo.#.  ",
".OoOOO.@@@@@.oO+.##@@@@@@@@.#.  ",
".OoOO.oXXXX#.O+.@@XXXXXXXXX.#.  ",
".OoOO..XXXX.o..@@XXXXXXXXXX.#.  ",
".OoOOO.ooo#..#Ooooooooooooo.#.  ",
".OoOOO.@@@.##@@@@@@@@@@@@@@.#.  ",
".OoOO.oXX#X@XXXXXXXXX.......#.  ",
".OoOO..XXXX@XXXXXXXXX.XX@#..#.  ",
".OoOOO.oooo@ooooooooo.X@#.#.#.  ",
"          @@@@@@@@@@@.@#.#@.#.  ",
"....  ..  X@XXXXXXXXX.#.#@@.#.  ",
".    .  . X@XXXXXXXXX..#@@@.#.  ",
"...     . ..................#.  ",
".      .  @@@@@@@@@@@@@@@@@@..  ",
".     .   ....................  ",
".    ....                       "};
