/* XPM */
static char *notes1[] = {
/* notes1 pixmap
* width height ncolors chars_per_pixel */
"32 32 17 1 ",
/* colors */
"0 c black       m black         s s_black ",
"r c red        m black         s s_darkred ",
"g c green      m black         s s_darkgreen ",
"y c yellow     m black         s s_darkyellow ",
"b c blue       m black         s s_darkblue ",
"m c magenta    m black         s s_darkmagenta ",
"c c cyan       m black         s s_darkcyan ",
"a c gray50      m black         s s_darkgray ",
"A c gray75      m white         s s_gray ",
"R c red         m white         s s_red ",
"G c green       m white         s s_green ",
"Y c yellow      m white         s s_yellow ",
"B c blue        m white         s s_blue ",
"M c magenta     m white         s s_magenta ",
"C c cyan        m white         s s_cyan ",
"W c white       m white         s s_white ",
"  c None        m white         s None ",
/* pixels */
"      00000                     ",
"     0ccccc0                    "
"    0ccccccc0                   ",
"    0ccccccC0                   ",
"    0cCCWWCc0     00            ",
"     0ccccc0    00YW0           ",
"      00000   00WYWY0           ",
"     00ccc0000YWYWYWY0          ",
"    0c0ccW0c0YWYWYWYW0          ",
"   0cc0ccC0cC0YWYWYWYW0         ",
"   0ccc000ccC0WYWYWYWY0         ",
"   0cCcccccCc0YWYWYWYWY0        ",
"  00ccCCWWCcc0WYWYWYWYW0        ",
"00ya0ccccccc0WYWYWYWYWYW0       ",
"0yyya0000000WYWYWYWYWYWY0       ",
" 0yayaya0WYWYWYWYWYyyWYWY0      ",
" 0yyayay0YWYWYWYWyyYWYWYW0      ",
"  0yyayayWYWYyYyyWYWYWYWYW0     ",
"  0yyyayWYWYWyyYWyWYWyyYWY0     ",
"   0yWYWYWYyyWYWYWYyyWYWYWY0    ",
"   0yyWYWyyYyyWYWyyYWyWYWYWY0   ",
"    0yYWYWYWYWYyyWYWYWYWyyYWY000",
"    0yyYWYWYyyyYWYWYWYyyWYWYWYW0",
"     0yWYWyyYWYyYyYWyyYWYWYWYW0 ",
"     0yyWYWYWYWYWYyyWYyYWYWYW0  ",
"      0yYWYWYWYWyyYWYWYWYWY00   ",
"      00yYWYWYWYWYWYWYWYW00     ",
"       00AaWYWYWYWYWYWY00       ",
"        0000000YWYWYW00         ",
"         0AYWW0aYWY00           ",
"          00AYA0000             ",
"            00000               ",
};