/* XPM */
static char * Open_xpm[] = {
/* */
"32 32 6 1",
/**/
" 	s grey	c grey",
".	c black",
"X	c lemonchiffon",
"o	c yellow",
"O	c lemonchiffon",
"+	c blue",
/* pixels */
"                                ",
"                                ",
"                                ",
"                                ",
"                                ",
"      ......                    ",
"     .XXXXXX...........         ",
"     .XXXXXXXXXXXXXXXXX.        ",
"     .XX             XX.        ",
"     .XXoooooooooooooXX.        ",
"     .XXXXXXXXXXXXXXXXX.        ",
"     .XX             XX.        ",
"     .XXoooooooooooooXX.        ",
"     .XXXXXXXXXXXXXXXXX.        ",
"     .XX   .................    ",
"     .XXoo.OOOOOOOOOOOOOOO.     ",
"     .XXX.OOOOOOOOOOOOOOO.      ",
"     .XX.OOOOOOOOOOOOOOO.       ",
"     .X.OOOOOOO+++++OOO.        ",
"     ..OOOOOOOO+++++OO.         ",
"     ..........+++++..          ",
"               +++++            ",
"               +++++            ",
"             +++++++++          ",
"              +++++++           ",
"               +++++            ",
"                +++             ",
"                 +              ",
"                                ",
"                                ",
"                                ",
"                                "};
