/* XPM */
static char * gfm_make_3d_xpm[] = {
"32 32 16 1",
" 	s None	c None",
".	c black",
"X	c lemonchiffon",
"o	c tan",
"O	c grey",
"+	c grey56",
"@	c grey50",
"#	c grey56",
"$	c black",
"%	c grey50",
"&	c grey50",
"*	c mediumseagreen",
"=	c black",
"-	c grey50",
";	c grey56",
":	c cyan",
"    ..................          ",
"    .XXXXXXXXXXXXXXXX..         ",
"    .XXXXXX...XXXXXXX.o.        ",
"    .XXXX...O...XXXXX.oo.       ",
"    .XXXX.+@.#@.XXXXX.ooo.      ",
"    .XXX..@$..%$.XXXX.oooo.     ",
"    .XXX.@#.&@#@.XXXX.ooooo.    ",
"    .XXX.$%*=#%$.XXXX.......    ",
"    .XXXX.-;%;*....XXXooooo=    ",
"    .XXXX...@$=$.:.XX.Xoooo$    ",
"    .XXXXXX..$:.:::..:.XXXX$    ",
"    .XXXXXX.::::::::::..XXX.    ",
"    .XXXXXXX.:::...:::.XXXX.    ",
"    .XXXXXXX.::.:.X.::.XXXX.    ",
"    .XXXXX..::.:.XXX.::..XX$    ",
"    .XXXXX.:::..XXXX.:::.XX.    ",
"    .XXXXX...:.:.XXX.:...XX.    ",
"    .XXXXXXX.::.:.X.::.XXXX.    ",
"    .XXXXXXX.:::...:::.XXXX=    ",
"    .XXXXXX.:::::::::::.XXX$    ",
"    .XXXXXX..:..::.....XXXX.    ",
"    .XXXX...@$..::.XX.XXXXX.    ",
"    .XXXX.;*.+@....XXXXXXXX.    ",
"    .XXX..%=$.#..XXXXXXXXXX.    ",
"    .XXX$@-$@#%@.XXXXXXXXXX.    ",
"    .XXX.$@+.@#..XXXXXXXXXX.    ",
"    .XXXX.+@;*%.XXXXXXXXXXX.    ",
"    .XXXX...%=$$XXXXXXXXXXX.    ",
"    .XXXXXX.$$XXXXXXXXXXXXX$    ",
"    .XXXXXXXXXXXXXXXXXXXXXX.    ",
"    ........................    ",
"                                "};
