/* XPM */
static char * WRITE1_xpm[] = {
/* width height ncolors chars_per_pixel */
"32 32 9 1",
/* colors */
" 	s None	c None",
".	c black",
"X	c magenta",
"o	c grey",
"O	c white",
"+	c grey50",
"@	c blue",
"#	c blue",
"$	c cyan",
/* pixels */
"                                ",
"                          .     ",
"                         .X.    ",
"                        .X.     ",
"                       .X.      ",
"                      .X.       ",
"                     .X.        ",
"          ..        .X.         ",
"       ...o...    O.X...        ",
"     ..o......  Oo.X.OOO.       ",
"    .......OO. Oo.X.OOOOO..     ",
" ...o....O.OO.Oo.X.ooOOOOOO.....",
".o.....OO+.+O.o.X..oooOOOOOO.@@.",
".....OOOOOOOo..X...oooOOOOOO.#@.",
"...O.OOOOOo++......ooOOOOOOO.@@.",
".OO+.+OOo++O..oooOOOOOOOOOO+.@@.",
"..OOOOo++OO.X....ooooOO..++..@@.",
".o.Oo++OOOO..Oooo......  ...@.@.",
"@.o.+OOOOO.oOOOOooooo.    .@.@..",
" @.o.OOOOOOOOOOO$$OOOO.    .....",
"  @.o.OOOOOOOO$$OOOOOOO.        ",
"   @.o.OOOOO$$OOOOO$$OOO.       ",
"    @.o.OO$$OOOOO$$OOOOOO.      ",
"     @.o.OOOOOO$$OOOOOO....     ",
"      @.o.OOO$$OOOOOO..oo..     ",
"       @.o.OOOOOOOO..oo..@      ",
"        @.o.OOOOO..oo..@        ",
"         @.o.OO..oo..@          ",
"          @.o..oo..@            ",
"           @.oo..@              ",
"            @..@                ",
"             .                  "};
