/* XPM */
static char *person[] = {
/* person pixmap
* width height ncolors chars_per_pixel */
"32 32 16 1 ",
/* colors */
"0 c black       m black         s s_black ",
"r c red        m black         s s_darkred ",
"g c green      m black         s s_darkgreen ",
"y c yellow     m black         s s_darkyellow ",
"b c blue       m black         s s_darkblue ",
"m c magenta    m black         s s_darkmagenta ",
"c c cyan       m black         s s_darkcyan ",
"A c gray50      m black         s s_darkgray ",
"  c gray75      m white         s s_gray ",
"G c green       m white         s s_green ",
"Y c yellow      m white         s s_yellow ",
"B c blue        m white         s s_blue ",
"M c magenta     m white         s s_magenta ",
"C c cyan        m white         s s_cyan ",
"W c white       m white         s s_white ",
"R c None        m white         s None ",
/* pixels */
"RRRRRRRRRRRRRRRRRRRRRRRRRRRRRRRR",
"RRRAAAAAAAAAAAAAAAAAAAARRRRRRRRR"
"RRRAWWWWWWWWWWWWWWWWWWA0RRRRRRRR",
"RRRAWWWWWWWWWWWWWWWWWWAA0RRRRRRR",
"RRRAWWWWWWWWWWWWWWWWWWA A0RRRRRR",
"RRRAWWWWWWWWWWWWWWWWWWAW A0RRRRR",
"RRRAWWWWWWWWWWWWWWWWWWAWW A0RRRR",
"RRRAWWWWWWWWWWWWWWWWWWA000000RRR",
"RRRAWWWWWWWWWWWWWWWWWWWWWWW 0RRR",
"RRRAWWWWWWWW0000000WWWWWWWW 0RRR",
"RRRAWWWWWWW0000000000WWWWWW 0RRR",
"RRRAWWWWWWW0000000000WWWWWW 0RRR",
"RRRAWWWWWW00000000 W0WWWWWW 0RRR",
"RRRAWWWWWW000000W W0WWWWWWW 0RRR",
"RRRAWWWWWW00000W WB0WWWWWWW 0RRR",
"RRRAWWWWWW0000W W W 0WWWWWW 0RRR",
"RRRAWWWWWW0000 W W 0WWWWWWW 0RRR",
"RRRAWWWWWW00000 W W0WWWWWWW 0RRR",
"RRRAWWWWWWW000 W W 0WWWWWWW 0RRR",
"RRRAWWWWWWWW00W 000WWWWWWWW 0RRR",
"RRRAWWWWWWWW0W W 0WWWWWWWWW 0RRR",
"RRRAWWWWWWW000W W 0WWWWWWWW 0RRR",
"RRRAWWWWWW0GGG00 0G0WWWWWWW 0RRR",
"RRRAWWWWWWGGGGGG00GGWWWWWWW 0RRR",
"RRRAWWWWWWWWWWWWWWWWWWWWWWW 0RRR",
"RRRAWWWWWWWWWWWWWWWWWWWWWWW 0RRR",
"RRRAWWWWWWWWWWWWWWWWWWWWWWW 0RRR",
"RRRAWWWWWWWWWWWWWWWWWWWWWWW 0RRR",
"RRRAWWWWWWWWWWWWWWWWWWWWWWW 0RRR",
"RRRA                        0RRR",
"RRR00000000000000000000000000RRR",
"RRRRRRRRRRRRRRRRRRRRRRRRRRRRRRRR",
};
