/* XPM */
static char * PRINTER_xpm[] = {
/* width height ncolors chars_per_pixel */
"32 32 7 1",
/* colors */
" 	s grey	c grey",
".	c white",
"X	c grey50",
"o	c black",
"O	c red",
"+	c blue",
"@	c grey20",
/* pixels */
"                                ",
"                                ",
"                                ",
"                                ",
"                                ",
"                                ",
"                                ",
"                                ",
"             ...........        ",
"           X...........X        ",
"           X..Xoo......X        ",
"          X...XooX....X         ",
"          X...oXoo....X         ",
"       XXX...Xo.ooX..XoX     X  ",
"      Xoo....oX.Xoo.. oooo  .X  ",
"     Xooooooooooooooooooo  .XX  ",
"                          .XXX  ",
" .........................XXXX  ",
" .                        XXXX  ",
" .                   OOO  XXXX  ",
" .                    ... XXXX  ",
" .                   +++  XXXX  ",
" .                    ... XXX@  ",
" .  @@@@@@@@@@@@@@@@      XX@@  ",
" . @X  XX   XX   .X@X     X@X@XX",
" X@X  XXX  XXX  .XX@@@@@@@@X@XXX",
"  ..............XX@XX     X@XXX ",
"  XXXXXXXXXXXXXXX@XX      @XXX  ",
"               X@@@@@@@@@@XXX   ",
"   @@@@@@@@@@@@@@XXXXXXXXXXX    ",
"   XXXXXXXXXXXXXXXX             ",
"                                "};
