/* XPM */
static char * convert2_xpm[] = {
"32 32 9 1",
" 	s None	c None",
".	c magenta",
"X	c magenta",
"o	c white",
"O	c black",
"+	c grey50",
"@	c blue",
"#	c cyan",
"$	c blue",
"                                ",
"                                ",
"            ........            ",
"         ..............         ",
"        ................        ",
"X     ....................      ",
".XXX .....................X     ",
"o..X.....................X.X    ",
"o............OOOOOO.....X.X.    ",
" o.........OO++++++OO..X.X.X.   ",
" o........XXX++++++++OX.X.X.X   ",
"  o..........XX     +O.X.XXXXX  ",
"  o...........o      + XXXXXXX  ",
"  @o.......oo+++       XXX##XX  ",
"  @o....ooo+++++       X##$#XX  ",
"  @@o.oo@ ++++       ###$$$$#X  ",
"  @@oo@@@+++       ##$$$$$$$#X  ",
"  @@@@@@@ ++     #$$$$$$$$$$$#  ",
"  @@@@@@@$ +     @@$$$$$$$$$$#  ",
"  @@@@$@$@ +       @@@$$$$$$$$# ",
"  O$@$@$@$@          $$$$$$$$$# ",
"  +O$@$@$$$$$      $$$$$$$$$@$$#",
"  +O@$@$$$$$$$$$$$$$$$$$$$$@@@$#",
"   +O@$$$$$$$$$$$$$$$$$$$$$O+@@$",
"    +O$$$$$$$$$$$$$$$$$$$$O++++@",
"     +OO$$$$$$$$$$$$$$$$$O+++ ++",
"      ++O$$$$$$$$$$$$$$OO+++    ",
"        +OOO$$$$$$$$OOO++++     ",
"         +++OOOOOOOO++++++      ",
"           +++++++++++++        ",
"             ++++++++           ",
"                                "};
