/* XPM */
static char * replall_xpm[] = {
/* width height ncolors chars_per_pixel */
"32 32 13 1",
/* colors */
" 	s None	c None",
".	c yellow",
"X	c white",
"o	c gold",
"O	c green",
"+	c red",
"@	c magenta",
"#	c red",
"$	c grey50",
"%	c cyan",
"&	c grey",
"*	c blue",
"=	c blue",
/* pixels */
"                                ",
"                                ",
"            . . .               ",
"         X.X........XXX         ",
"        ..X...o.o.o..O.X        ",
"       .X.+.+o.o.o..O.OOX       ",
"      .+.+++         ..O.       ",
"     .+.++             .OO      ",
"    .+.++               OOO     ",
"   .+.++                 OOO    ",
"   .@++                  OOO    ",
"   .++#                  $OO    ",
"  .++#+                   OO%   ",
"   ++++                   %OO   ",
"  .+@#+                   %O%   ",
"  .@+++                   %%O   ",
"  &+@++                   %O%   ",
"  .@@++                   %%%   ",
"   +@#+                   XO%   ",
"   @@@%                  X%%O   ",
"    @@@$                 %%%    ",
"    @@@%                XX%%    ",
"     @@$X               %%%*    ",
"     @@@=@             X%%%     ",
"      @@@=XX        X%X%%%      ",
"       @=@=@@XXXXX%X%X%%=       ",
"        @=@=@=@=X=%=%=%*        ",
"         ==@==========*         ",
"            ======%=            ",
"                                ",
"                                ",
"                                "};
