#define ROL_width 16
#define ROL_height 16
static char ROL_bits[] = {
   0x00, 0x00, 0x00, 0x00, 0x00, 0x00, 0x00, 0x00, 0xfe, 0x3f, 0x92, 0x24,
   0x92, 0x24, 0xfe, 0x3f, 0x04, 0x10, 0x0e, 0x10, 0x04, 0x10, 0x04, 0x10,
   0xfc, 0x1f, 0x00, 0x00, 0x00, 0x00, 0x00, 0x00};
