#define ROR_width 16
#define ROR_height 16
static char ROR_bits[] = {
   0x00, 0x00, 0x00, 0x00, 0x00, 0x00, 0x00, 0x00, 0xfe, 0x3f, 0x92, 0x24,
   0x92, 0x24, 0xfe, 0x3f, 0x04, 0x10, 0x04, 0x38, 0x04, 0x10, 0x04, 0x10,
   0xfc, 0x1f, 0x00, 0x00, 0x00, 0x00, 0x00, 0x00};
