#define S24IO_width 60
#define S24IO_height 120
static char S24IO_bits[] = {
   0x00, 0xff, 0xff, 0xff, 0xff, 0xff, 0x07, 0x00, 0x00, 0x03, 0x00, 0x00,
   0x00, 0x00, 0x06, 0x00, 0x00, 0x05, 0x00, 0x00, 0x00, 0x00, 0x05, 0x00,
   0x00, 0x09, 0x00, 0x00, 0x00, 0x80, 0x04, 0x00, 0x00, 0x11, 0x00, 0x00,
   0x00, 0x40, 0x04, 0x00, 0x00, 0x21, 0x00, 0x00, 0x00, 0x20, 0x04, 0x00,
   0x00, 0x41, 0x00, 0x00, 0x00, 0x10, 0x04, 0x00, 0x00, 0x81, 0xff, 0xff,
   0xff, 0x0f, 0x04, 0x00, 0x00, 0x81, 0x00, 0x00, 0x00, 0x08, 0x04, 0x00,
   0x00, 0x81, 0x00, 0x00, 0x00, 0x08, 0x04, 0x00, 0x00, 0x81, 0x00, 0x00,
   0x00, 0x08, 0x04, 0x00, 0x00, 0x81, 0x00, 0x00, 0x00, 0x08, 0x04, 0x00,
   0x00, 0x81, 0x00, 0x00, 0x00, 0x08, 0x04, 0x00, 0x00, 0x81, 0x00, 0x00,
   0x00, 0x08, 0x04, 0x00, 0x00, 0x81, 0x00, 0x00, 0x00, 0x08, 0x04, 0x00,
   0x00, 0x81, 0x00, 0x00, 0x00, 0x08, 0x04, 0x00, 0x00, 0x81, 0x08, 0x00,
   0x80, 0x08, 0x04, 0x00, 0x00, 0x81, 0x1c, 0x00, 0xc0, 0x09, 0x04, 0x00,
   0x00, 0x81, 0x08, 0x00, 0x80, 0x08, 0x04, 0x00, 0x00, 0x81, 0x00, 0x00,
   0x00, 0x08, 0x04, 0x00, 0x00, 0x81, 0x08, 0x00, 0x80, 0x08, 0x04, 0x00,
   0x00, 0x81, 0x1c, 0x00, 0xc0, 0x09, 0x04, 0x00, 0x00, 0x81, 0x08, 0x00,
   0x80, 0x08, 0x04, 0x00, 0x00, 0x81, 0x00, 0x00, 0x00, 0x08, 0x04, 0x00,
   0x00, 0x81, 0x08, 0x00, 0x80, 0x08, 0x04, 0x00, 0x08, 0x81, 0x1c, 0x00,
   0xc0, 0x09, 0x84, 0x00, 0x14, 0x81, 0x08, 0x00, 0x80, 0x08, 0xc4, 0x00,
   0x14, 0x81, 0x00, 0x00, 0x00, 0x08, 0x84, 0x00, 0x14, 0x81, 0x08, 0x00,
   0x80, 0x08, 0x84, 0x00, 0x14, 0x81, 0x1c, 0x00, 0xc0, 0x09, 0x84, 0x00,
   0x08, 0x81, 0x08, 0x00, 0x80, 0x08, 0xc4, 0x01, 0x00, 0x81, 0x00, 0x00,
   0x00, 0x08, 0x04, 0x00, 0x00, 0x81, 0x08, 0x00, 0x80, 0x08, 0x04, 0x00,
   0x00, 0x81, 0x1c, 0x00, 0xc0, 0x09, 0x04, 0x00, 0x00, 0x81, 0x08, 0x00,
   0x80, 0x08, 0x04, 0x00, 0x00, 0x81, 0x00, 0x00, 0x00, 0x08, 0x04, 0x00,
   0x00, 0x81, 0x08, 0x00, 0x80, 0x08, 0x04, 0x00, 0x00, 0x81, 0x1c, 0x00,
   0xc0, 0x09, 0x04, 0x00, 0x00, 0x81, 0x08, 0x00, 0x80, 0x08, 0x04, 0x00,
   0x00, 0x81, 0x00, 0x00, 0x00, 0x08, 0x04, 0x00, 0x00, 0x81, 0x08, 0x00,
   0x80, 0x08, 0x04, 0x00, 0x00, 0x81, 0x1c, 0x00, 0xc0, 0x09, 0x04, 0x00,
   0x00, 0x81, 0x08, 0x00, 0x80, 0x08, 0x04, 0x00, 0x00, 0x81, 0x00, 0x00,
   0x00, 0x08, 0x04, 0x00, 0x00, 0x81, 0x08, 0x00, 0x80, 0x08, 0x04, 0x00,
   0x00, 0x81, 0x1c, 0x00, 0xc0, 0x09, 0x04, 0x00, 0x00, 0x81, 0x08, 0x00,
   0x80, 0x08, 0x04, 0x00, 0x00, 0x81, 0x00, 0x00, 0x00, 0x08, 0x04, 0x00,
   0x00, 0x81, 0x00, 0x00, 0x00, 0x08, 0x04, 0x00, 0x00, 0x81, 0x00, 0x00,
   0x00, 0x08, 0x04, 0x00, 0x00, 0x81, 0x00, 0x00, 0x00, 0x08, 0x04, 0x00,
   0x00, 0x81, 0x00, 0x00, 0x00, 0x08, 0x04, 0x00, 0x00, 0x81, 0x00, 0x00,
   0x00, 0x08, 0x04, 0x00, 0x00, 0x81, 0x00, 0x00, 0x00, 0x08, 0x04, 0x00,
   0x00, 0x81, 0x00, 0x00, 0x00, 0x08, 0x04, 0x00, 0x00, 0x81, 0x00, 0x00,
   0x00, 0x08, 0x04, 0x00, 0x00, 0x81, 0x00, 0x00, 0x00, 0x08, 0x04, 0x00,
   0x00, 0x81, 0x00, 0x00, 0x00, 0x08, 0x04, 0x00, 0x00, 0x81, 0x00, 0x00,
   0x00, 0x08, 0x04, 0x00, 0x00, 0x81, 0x00, 0x00, 0x00, 0x08, 0x04, 0x00,
   0x00, 0x81, 0x00, 0x00, 0x00, 0x08, 0x04, 0x00, 0x00, 0x81, 0x00, 0x00,
   0x00, 0x08, 0x04, 0x00, 0x00, 0x81, 0x00, 0x00, 0x00, 0x08, 0x04, 0x00,
   0x00, 0x81, 0x00, 0x00, 0x00, 0x08, 0x04, 0x00, 0x00, 0x81, 0x00, 0x00,
   0x00, 0x08, 0x04, 0x00, 0x00, 0x81, 0x00, 0x00, 0x00, 0x08, 0x04, 0x00,
   0x00, 0x81, 0x00, 0x00, 0x00, 0x08, 0x04, 0x00, 0x00, 0x81, 0x00, 0x00,
   0x00, 0x08, 0x04, 0x00, 0x00, 0x81, 0x00, 0x00, 0x00, 0x08, 0x04, 0x00,
   0x00, 0x81, 0x00, 0x00, 0x00, 0x08, 0x04, 0x00, 0x00, 0x81, 0x00, 0x00,
   0x00, 0x08, 0x04, 0x00, 0x00, 0x81, 0x00, 0x00, 0x00, 0x08, 0x04, 0x00,
   0x00, 0x81, 0x00, 0x00, 0x80, 0x08, 0x04, 0x00, 0x00, 0x81, 0x00, 0x00,
   0xc0, 0x09, 0x04, 0x00, 0x00, 0x81, 0x00, 0x00, 0x80, 0x08, 0x04, 0x00,
   0x00, 0x81, 0x00, 0x00, 0x00, 0x08, 0x04, 0x00, 0x00, 0x81, 0x00, 0x00,
   0x80, 0x08, 0x04, 0x00, 0x00, 0x81, 0x00, 0x00, 0xc0, 0x09, 0x04, 0x00,
   0x00, 0x81, 0x00, 0x00, 0x80, 0x08, 0x04, 0x00, 0x00, 0x81, 0x00, 0x00,
   0x00, 0x08, 0x04, 0x00, 0x00, 0x81, 0x00, 0x00, 0x80, 0x08, 0x04, 0x00,
   0x00, 0x81, 0x00, 0x00, 0xc0, 0x09, 0x84, 0x01, 0x00, 0x81, 0x00, 0x00,
   0x80, 0x08, 0x44, 0x02, 0x00, 0x81, 0x00, 0x00, 0x00, 0x08, 0x04, 0x02,
   0x00, 0x81, 0x00, 0x00, 0x80, 0x08, 0x04, 0x01, 0x00, 0x81, 0x00, 0x00,
   0xc0, 0x09, 0x84, 0x00, 0x00, 0x81, 0x00, 0x00, 0x80, 0x08, 0xc4, 0x03,
   0x00, 0x81, 0x00, 0x00, 0x00, 0x08, 0x04, 0x00, 0x00, 0x81, 0x00, 0x00,
   0x80, 0x08, 0x04, 0x00, 0x00, 0x81, 0x00, 0x00, 0xc0, 0x09, 0x04, 0x00,
   0x00, 0x81, 0x00, 0x00, 0x80, 0x08, 0x04, 0x00, 0x00, 0x81, 0x00, 0x00,
   0x00, 0x08, 0x04, 0x00, 0x00, 0x81, 0x00, 0x00, 0x80, 0x08, 0x04, 0x00,
   0x00, 0x81, 0x00, 0x00, 0xc0, 0x09, 0x04, 0x00, 0x00, 0x81, 0x00, 0x00,
   0x80, 0x08, 0x04, 0x00, 0x00, 0x81, 0x00, 0x00, 0x00, 0x08, 0x04, 0x00,
   0x00, 0x81, 0x00, 0x00, 0x80, 0x08, 0x04, 0x00, 0x00, 0x81, 0x00, 0x00,
   0xc0, 0x09, 0x04, 0x00, 0x00, 0x81, 0x00, 0x00, 0x80, 0x08, 0x04, 0x00,
   0x00, 0x81, 0x00, 0x00, 0x00, 0x08, 0x04, 0x00, 0x00, 0x81, 0x00, 0x00,
   0x80, 0x08, 0x04, 0x00, 0x00, 0x81, 0x00, 0x00, 0xc0, 0x09, 0x04, 0x00,
   0x00, 0x81, 0x00, 0x00, 0x80, 0x08, 0x04, 0x00, 0x00, 0x81, 0x00, 0x00,
   0x00, 0x08, 0x04, 0x00, 0x00, 0x81, 0x00, 0x00, 0x00, 0x08, 0x04, 0x00,
   0x00, 0x81, 0x00, 0x00, 0x00, 0x08, 0x04, 0x00, 0x00, 0x81, 0x00, 0x00,
   0x00, 0x08, 0x04, 0x00, 0x00, 0x81, 0x00, 0x00, 0x00, 0x08, 0x04, 0x00,
   0x00, 0x81, 0x00, 0x00, 0x00, 0x08, 0x04, 0x00, 0x00, 0x81, 0x00, 0x00,
   0x00, 0x08, 0x04, 0x00, 0x00, 0x81, 0x00, 0x00, 0x00, 0x08, 0x04, 0x00,
   0x00, 0x81, 0x00, 0x00, 0x00, 0x08, 0x04, 0x00, 0x00, 0x81, 0xff, 0xff,
   0xff, 0x0f, 0x04, 0x00, 0x00, 0x41, 0x00, 0x00, 0x00, 0x10, 0x04, 0x00,
   0x00, 0x21, 0x00, 0x00, 0x00, 0x20, 0x04, 0x00, 0x00, 0x11, 0x00, 0x00,
   0x00, 0x40, 0x04, 0x00, 0x00, 0x09, 0x00, 0x00, 0x00, 0x80, 0x04, 0x00,
   0x00, 0x05, 0x00, 0x00, 0x00, 0x00, 0x05, 0x00, 0x00, 0x03, 0x00, 0x00,
   0x00, 0x00, 0x06, 0x00, 0x00, 0xff, 0xff, 0xff, 0xff, 0xff, 0x07, 0x00};
