/* XPM */
static char * files3_xpm[] = {
/* width height ncolors chars_per_pixel */
"32 32 8 1",
/* colors */
" 	s grey	c grey",
".	c black",
"X	c white",
"o	c blue",
"O	c yellow",
"+	c gold",
"@	c magenta",
"#	c grey",
/* pixels */
"                                ",
"                                ",
"                  .             ",
"                 .X.            ",
"                .XXX.           ",
"               .XXXXX.          ",
"          ..  .XXXoXXX.         ",
"..       .XX..XXXoXXXXX.        ",
".O.     .XXO.XXXoXXXoXXX.       ",
".+O.   .XOX.XXXoXXXoXXXXX.      ",
".O+O. .OXX.XXXoXXXoXXXoXXX.     ",
".+O+O.+XX.XXXoXXXoXXXoXXXXX.    ",
".O+O+O.+XX.XXXXXoXXXoXXXoXXX.   ",
".+O+O+O.+OX.XXXoXXXoXXXoXXXXX.  ",
".O+O+O+O.+XO.XXXXXoXXXoXXXoXXX. ",
".+O+O+O+O.+XX.XXXoXXXoXXXoXXXXX.",
".O+O+O+O+O.+XX.XXXXXoX...XXXXX. ",
".+O+O+O+O+O.+OX.XXXoXX.@.XXXX.  ",
".O+O+O+O+O+O.+XO.XXXXX.#.XXX.   ",
" .O+O+O+O+O+.OXXX.XXX.##.XX..   ",
"  .O+O+O+O+O.+XOXX.XX.##...#.   ",
"   .O+O+O+O+.OXXXOX..#######.   ",
"    .O+O+O+O.+XOXXXO.#######.   ",
"     .O+O+O+.OXXXOX..######.    ",
"      .O+O+O.+XOXX. .#####.     ",
"       .O+O+.OXXX.  .####.      ",
"        .O+O.+XO.   .###.       ",
"         .O+.OX.    .###.       ",
"          .O.+.     .###.       ",
"           ...     @.###.@      ",
"                    @@@@@       ",
"                    .###.       "};
