/* XPM */
static char * savevar1_xpm[] = {
/* width height ncolors chars_per_pixel */
"32 32 8 1",
/* colors */
" 	s None	c None",
".	c black",
"X	c cyan",
"o	c yellow",
"O	c white",
"+	c grey",
"@	c gold",
"#	c grey50",
/* pixels */
"                                ",
"  ......                        ",
" .XXXXXX.                       ",
" .XXXXXX........                ",
".oOoOoOoOoOoOoOo.               ",
".OoOoOoOoOoOoOoO.    .          ",
".oOo..............  .+.         ",
".OoO.o@o@o@o@o@o@o..++.....     ",
".oO.o@o@o@o@o@o@o@.++++++.X.    ",
".Oo.@o@o@o@o@o@o@.+++++++.XX.   ",
".o.@o@o@o@o@o@o@o..++++++.XXX.  ",
".O.o@o@o@o@o@o@o.  .++....XXX.  ",
"..o@o@o@o@o@o@o@.   .+.  .XXX.  ",
".o@o@o@o@o@o@o@..    .   .XXX.  ",
"................#.       .XXX.  ",
".#################.     ..XXX.. ",
" .############......   .XXXXXXX.",
"  ............++++++.   .XXXXX. ",
"             .++++++......XXX.  ",
"            .oOoOoOoOoOoOo.X.   ",
"            .OoOoOoOoOoOoOo.    ",
"            .oOo................",
"            .OoO.o@o@o@o@o@o@o@.",
"            .oO.o@o@o@o@o@o@o@o.",
"            .Oo.@o@o@o@o@o@o@o..",
"            .o.@o@o@o@o@o@o@o@..",
"            .O.o@o@o@o@o@o@o@...",
"            ..o@o@o@o@o@o@o@o...",
"            .o@o@o@o@o@o@o@o.#..",
"             ................##.",
"            .###################",
"             .##################"};
