#define SAVESEG_width 16
#define SAVESEG_height 16
static char SAVESEG_bits[] = {
   0x80, 0x01, 0x40, 0x02, 0x21, 0x04, 0x13, 0x09, 0x8d, 0x10, 0x4b, 0x24,
   0x15, 0x12, 0x2f, 0x09, 0x75, 0x0c, 0x6f, 0x12, 0xdb, 0x09, 0x76, 0x04,
   0x5c, 0x02, 0x68, 0x01, 0xf0, 0x00, 0x60, 0x00};
