/* XPM */
static char * delete_xpm[] = {
/* width height ncolors chars_per_pixel */
"32 32 8 1",
/* colors */
" 	s None	c None",
".	c grey",
"X	c blue",
"o	c white",
"O	c grey50",
"+	c black",
"@	c red",
"#	c blue",
/* pixels */
"                                ",
"                                ",
"  ......XoX...................  ",
"  ......oXoOOO................  ",
"  ......X+++++++OO............  ",
"  ....O++ooXX..O++O...........  ",
"  ...O+XXooXX..ooO+O..........  ",
"  ..O+XooXXoo.OOooO+O.........  ",
"  .O+XXooXXoo...OooO+O........  ",
"  .+OooXXooXX....Oo.O+........  ",
"  .+.ooXXooXX....Ooo.+........  ",
"  +..XXooXXoo.....Oo.O+.......  ",
"  +..XXooXXoo.....Oo..+.......  ",
"  +@@ooXXooXX@@@@@@@@@+.......  ",
"  +@@ooXXooXX@@@@@@@@@+@@@@@@@  ",
"  +@@XXooXXoo@@@@@@@@@+@@@@@@@  ",
" o+@@XXooXXoo@@@@@@@@@+.......  ",
" oO+.ooXXooXX.........+.......  ",
" oO+.ooXXooXX........++.......  ",
" oOO+XXooXXoo.......+++.......  ",
" o.OO+XooXXoo......++o++......  ",
" o.OOO+XXooXX.....++++o++.....  ",
" o..OOO++ooXX..O+++++++oO+....  ",
" o...OOO.+++++++   +++##oO+...  ",
" o.....O#.#OOOO..   +####oO+..  ",
" o.......X.O......   +####oO+.  ",
" o......XoX........   +####oO+  ",
" o......oXo.........   +####oO  ",
" o......XoX..........   +####oO ",
" o......oXo...........   +####o ",
"                           #### ",
"                                "};
