#define SHL_width 16
#define SHL_height 16
static char SHL_bits[] = {
   0x00, 0x00, 0x00, 0x00, 0x00, 0x00, 0xfe, 0x3f, 0x92, 0x24, 0x92, 0x24,
   0xfe, 0x3f, 0x00, 0x00, 0x00, 0x00, 0x00, 0x00, 0x40, 0x00, 0x20, 0x00,
   0xd0, 0x0f, 0x20, 0x00, 0x40, 0x00, 0x00, 0x00};
