#define SHR_width 16
#define SHR_height 16
static char SHR_bits[] = {
   0x00, 0x00, 0x00, 0x00, 0x00, 0x00, 0xfe, 0x3f, 0x92, 0x24, 0x92, 0x24,
   0xfe, 0x3f, 0x00, 0x00, 0x00, 0x00, 0x00, 0x00, 0x80, 0x00, 0x00, 0x01,
   0xfc, 0x02, 0x00, 0x01, 0x80, 0x00, 0x00, 0x00};
