#define SIN_width 16
#define SIN_height 16
static char SIN_bits[] = {
   0x01, 0x00, 0x01, 0x00, 0x01, 0x00, 0x11, 0x00, 0x39, 0x00, 0x45, 0x00,
   0x83, 0x00, 0x83, 0x00, 0xff, 0xff, 0x01, 0x41, 0x01, 0x41, 0x01, 0x22,
   0x01, 0x1c, 0x01, 0x08, 0x01, 0x00, 0x01, 0x00};
