#define SQRT_width 16
#define SQRT_height 16
static char SQRT_bits[] = {
   0x00, 0x00, 0x00, 0x00, 0x00, 0x00, 0x00, 0x00, 0x00, 0x00, 0xc2, 0x7f,
   0x42, 0x00, 0x24, 0x00, 0x24, 0x00, 0x24, 0x00, 0x14, 0x00, 0x18, 0x00,
   0x08, 0x00, 0x08, 0x00, 0x00, 0x00, 0x00, 0x00};
