#define TAN_width 16
#define TAN_height 16
static char TAN_bits[] = {
   0x80, 0x10, 0x80, 0x10, 0x80, 0x10, 0x80, 0x10, 0x80, 0x10, 0x80, 0x08,
   0x80, 0x04, 0x80, 0x03, 0xff, 0xff, 0xe0, 0x00, 0x90, 0x00, 0x88, 0x00,
   0x84, 0x00, 0x84, 0x00, 0x84, 0x00, 0x84, 0x00};
