#define TRUNC_width 16
#define TRUNC_height 16
static char TRUNC_bits[] = {
   0x00, 0x00, 0x06, 0x63, 0x89, 0x14, 0x09, 0x74, 0x0e, 0x92, 0x08, 0x91,
   0xa6, 0x67, 0x00, 0x00, 0x00, 0x00, 0x00, 0x00, 0x80, 0x01, 0x40, 0x02,
   0x40, 0x02, 0x80, 0x03, 0x00, 0x02, 0x80, 0x01};
