/* XPM */
static char *univer[] = {
/* univer pixmap
* width height ncolors chars_per_pixel */
"32 32 16 1 ",
/* colors */
"0 c black       m black         s s_black ",
"r c red        m black         s s_darkred ",
"g c green      m black         s s_darkgreen ",
"y c yellow     m black         s s_darkyellow ",
"b c blue       m black         s s_darkblue ",
"m c magenta    m black         s s_darkmagenta ",
"c c cyan       m black         s s_darkcyan ",
"A c gray50      m black         s s_darkgray ",
"  c gray75      m white         s s_gray ",
"G c green       m white         s s_green ",
"Y c yellow      m white         s s_yellow ",
"B c blue        m white         s s_blue ",
"M c magenta     m white         s s_magenta ",
"C c cyan        m white         s s_cyan ",
"W c white       m white         s s_white ",
"R c None        m white         s None ",
/* pixels */
"RRRRRRRRRRRRRRRRRRRRRRRRRRRRRRRR",
"RRRAAAAAAAAAAAAAAAAAAAA0RRRRRRRR"
"RRRAWWWWWWWWWWWWWWWWWWA0RRRRRRRR",
"RRRAWWWWWWWWWWWWWWWWWWAA0RRRRRRR",
"RRRAWWWWWWWWWWWWWWWWWWA ARRRRRRR",
"RRRAWWWWWWWWWWWWWWWWWWAW  A0RRRR",
"RRRAWWWWWWWWWWWWWWWWWWAWW A00RRR",
"RRRAWWWWWWWWWWWWWWWWWWA000000RRR",
"RRRAWWWWWWWWWWWWWWWWWWWWWWW 0RRR",
"RRRAWWWWWWWWWWWWWWWWWWWWWWW 0RRR",
"RRRAWWWWWWWWWWWWWWWWWWWWWWW 0RRR",
"RRRAWWWWWWWWWWWWWWWWWWWWWWW 0RRR",
"RRRAWWWWWWWWWWWWWWWWWWWWWWW 0RRR",
"RRRAWWWWWWWWWWW WWWWWWWWWWW 0RRR",
"RRRAWWWWWWWWWWW WWWWWWWWWWW 0RRR",
"RRRAWWWWWWWWW     WWWWWWWWW 0RRR",
"RRRAWWWWWWWWWWW WWWWWWWWWWW 0RRR",
"RRRAWWWWWWWWWWW WWWWWWWWWWW 0RRR",
"RRRAWWWWWWWWWWWWWWWWWWWWWWW 0RRR",
"RRRAWWWWWWWWWWWWWWWWWWWWWWW 0RRR",
"RRRAWWWWWWWWWWWWWWWWWWWWWWW 0RRR",
"RRRAWWWWWWWWWWWWWWWWWWWWWWW 0RRR",
"RRRAWWWWWWWWWWWWWWWWWWWWWWW 0RRR",
"RRRAWWWWWWWWWWWWWWWWWWWWWWW 0RRR",
"RRRAWWWWWWWWWWWWWWWWWWWWWWW 0RRR",
"RRRAWWWWWWWWWWWWWWWWWWWWWWW 0RRR",
"RRRAWWWWWWWWWWWWWWWWWWWWWWW 0RRR",
"RRRAWWWWWWWWWWWWWWWWWWWWWWW 0RRR",
"RRRAWWWWWWWWWWWWWWWWWWWWWWW 0RRR",
"RRRA                        0RRR",
"RRR00000000000000000000000000RRR",
"RRRRRRRRRRRRRRRRRRRRRRRRRRRRRRRR",
};
