/* XPM */
static char * WINDOWS_xpm[] = {
/* width height ncolors chars_per_pixel */
"32 32 5 1",
/* colors */
" 	c black",
".	c white",
"X	c cyan",
"o	c grey",
"O	c grey50",
/* pixels */
"                                ",
" ... XXXXXXXXXXXXXXXXXXXX o...o ",
" .oo                      OoooO ",
" .oo .................... OoooO ",
" .oo .                  . OoooO ",
" .oo .................... OoooO ",
" .oo .       ............ OoooO ",
" .oo .........                O ",
" .oo .       . XXXXXXXXXXXXXX O ",
" .oo .........                O ",
" .oo .       . .............. O ",
" .oo ......... .........    . O ",
"                       ...... O ",
" XXXXXXXXXXXXXXXXXXXXX .    . O ",
"                       ...... O ",
" ..................... .    . O ",
" ..................... ...... O ",
" .                   . .    . O ",
" ..................... ...... O ",
" .                   . .    . O ",
" ..................... ...... O ",
" .                   . .    . O ",
" ..................... ...... O ",
" .                   .        O ",
" ..................... OOOOOOOO ",
" .                   . OooooooO ",
" ..................... OooooooO ",
" .                   . OooooooO ",
" ..................... OooooooO ",
"                       OooooooO ",
" oOOOOOOOOOOOOOOOOOOOOOOOOOOOOO ",
"                                "};
