/* XPM */
static char * wipeout_xpm[] = {
/* wipeout pixmap
* width height ncolors chars_per_pixel */
"32 32 8 1",
/* colors */
" 	s None	m white	c None",
".	s s_black	m black	c black",
"X	s s_gray	m white	c gray75",
"o	s s_blue	m white	c blue",
"O	s s_white	m white	c white",
"+	s s_darkgray	m black	c gray50",
"@	s s_yellow	m white	c yellow",
"#	s s_darkyellow	m black	c yellow",
/* pixels */
"                                ",
"  ...........................   ",
"  .XX.oooooooooooooooooo.XXX.   ",
"  .XX.oooooooooooooooooo.XXX.X  ",
"  ...........................X  ",
"  .OOOOOOOOOOOOOOOOOOOOOOOOO.X  ",
"  .O....XXXX...OO..XXXX..+.O.X  ",
"  .OOOOOOOOOOOOOOOOOOOOOOOOO.X  ",
"  .OXX....XXXXO...O.O..++..O.X  ",
"  .OOOOOOOOOOOOOOO.@.OOOOOOO.X  ",
"  .O...XXX...O...O.@#..O.+.O.X  ",
"  .OOOOOOOOOOOOOO.@###.+OOOO.X  ",
"  .OXX...OXXX..O.##@@@#.+..O.X  ",
"  .OOOOOOOOOOOOO.@##@#@.++OO.X  ",
"  .O....XXX..OO.@OO##@##.++O.X  ",
"  .OOOOOOOOOO..@OO@O@##@#.+O.X  ",
"  .OXXX...+O.XX#@@@O@#@##.+O.X  ",
"  .OOOOOOOOOO.+####@@@###.+O.X  ",
"  .O...OXXO+O.#+#+@O@#@##X.+.X  ",
"  .OOOOOOOOOOO.@@@@O##@@##X..X  ",
"  .O...O+OOOOO.O#@O#@X##@XX..X  ",
"  .OO+O+OOOOOOO.##@@#X+@#X.X.X  ",
"  .OO+OOOOOOOOOO.#@#@+X...XX.X  ",
"  .O+OOOOOOOOOOOO.#@#X.XXXXO.X  ",
"  .OOOOOOOOOOOOOO.###+.X...O.X  ",
"         OOOOOOOOO.#+.XXOOOO.X  ",
"....   . OOOOOOO+.O..XX....O.X  ",
".     .. OOOOOOOOOOOOOOOOOOO.X  ",
"...  . . OOOOO.O++.........O.X  ",
".    ....OOOOOOOOOOOOOOOOOOO.X  ",
".      . ....................X  ",
".      . XXXXXXXXXXXXXXXXXXXXX  "};
