/* XPM */
static char * xncLOCAL_xpm[] = {
"24 24 7 1",
" 	s None	c None",
".	c #5D759E79A289",
"X	c blue",
"o	c black",
"O	c yellow",
"+	c gray",
"@	c white",
"                        ",
" ...................... ",
" ...................... ",
" ..XXXXXXXXXXXXXX..oo.. ",
" ..XXXXXXXXXXXXXX...... ",
" ..XXXOOXOXXOXOOX.o+o+. ",
" ..XXOOXXOXXOXOOX.+o+o. ",
" ..XOOXXXOOXOXXXX.o+o+. ",
" ..XOOXXXOOOOXOOX.+o+o. ",
" ..XOOXXXOXOOXOOX.o+o+. ",
" ..XXOOXXOXXOXOOX.@o@o. ",
" ..XXXOOXOXXOXOOX.o@o@. ",
" ..XXXXXXXXXXXXXX.@o o. ",
" ..XXXXXXXXXXXXXX.o@o@. ",
" ..XXXXXXXXXXXXXX.@@@@. ",
" ..XXXXXXXXXXXXXX.@@@@. ",
" ..XXXXXXXXXXXXXX.@@@@. ",
" .................oooo. ",
" ..o.o.o.o.o.o.o..oooo. ",
" ...................... ",
" ......oo..o.o.o..oooo. ",
" ......oo.........oooo. ",
" ...................... ",
"                        "};
