/* XPM */
static char *069[] = {
/* 069 pixmap
* width height ncolors chars_per_pixel */
"32 32 8 1 ",
/* colors */
"0 c black       m black         s s_black ",
"y c yellow     m black         s s_darkyellow ",
"A c gray50      m black         s s_darkgray ",
"  c gray75      m white         s s_gray ",
"R c red         m white         s s_red ",
"Y c yellow      m white         s s_yellow ",
"B c None        m white         s None ",
"W c white       m white         s s_white ",
/* pixels */
"BBBBBBBBBAAAAAAAABBBBByy000BBBBB",
"BBBBBBBBA       A0BBByWYyyy0BBBB"
"BBBBBBBBA AAAAA A0yy0yYWy00000BB",
"BBBBBBBBA AWWWW AyWY00WY0WYyyy0B",
"BBBBBBBBA AWWWW AyYWYWYWYYWyyy0B",
"BBBBBBBBA AWWWW A0yYWyy0YW0y00BB",
"BBBBBBBBA       AyyWyWyy0Y00000B",
"BBBBBBBBAAAAAAAAyYWYy0Wy0WYWyyy0",
"BBBBBBBAWWWWWWWWyWYWy0Yy0YWYyyy0",
"BBBBBBBAW    000 00YyYyy0W00000B",
"BBBBBBBAAAAAAAAAAA0WYyy0YY0y00BB",
"BBBBBBBB000000000yWYWYWYYWYyyy0B",
"BBBBBBBBBBBBBBBBByYW00YW0YWyyy0B",
"BBBBBBBBBBBBBBRBBB0000WYy00000BB",
"BBBBBBBBBBBBBRBBBBBBB0YWyyy0BBBB",
"BBBBBBBBBBBBBRBBBBBBBB00000BBBBB",
"BBBBBBBBBBBBRBBBBBBBBBBBBBBBBBBB",
"BBBBBBBBBBBBRBBBBBBBBBBBBBBBBBBB",
"BBBBBBBBBBRRRRRBBBBBBBBBBBBBBBBB",
"BBBAAAAABBBRRRBBBBBBBBBBBBBBBBBB",
"BBAWWWWWABBBRBBBBBBBBBBBBBBBBBBB",
"BAW Y Y WAAAAAABBBBBBBBBBBBBBBBB",
"BAWY Y Y WWWWWA0BBBBBBBBBBBBBBBB",
"BAW Y Y Y Y Y A0BBBBBBBBBBBBBBBB",
"AAAAAAAAAAAAAYA0BBBBBBBBBBBBBBBB",
"AWWWWWWWWWWA0 A0BBBBBBBBBBBBBBBB",
"AW Y Y Y Y Y0AA0BBBBBBBBBBBBBBBB",
"BAW Y Y Y Y A0A0BBBBBBBBBBBBBBBB",
"BAWY Y Y Y Y 0A0BBBBBBBBBBBBBBBB",
"BBAWY Y Y Y YA00BBBBBBBBBBBBBBBB",
"BBAAAAAAAAAAAA00BBBBBBBBBBBBBBBB",
"BBB0000000000000BBBBBBBBBBBBBBBB",
};
