<?xml version="1.0" encoding="utf-8"?>
<!-- Svg Vector Icons : http://www.onlinewebfonts.com/icon -->
<!DOCTYPE svg PUBLIC "-//W3C//DTD SVG 1.1//EN" "http://www.w3.org/Graphics/SVG/1.1/DTD/svg11.dtd">
<svg version="1.1" xmlns="http://www.w3.org/2000/svg" xmlns:xlink="http://www.w3.org/1999/xlink" x="0px" y="0px" viewBox="0 0 1000 1000" enable-background="new 0 0 1000 1000" xml:space="preserve">
<metadata> Svg Vector Icons : http://www.onlinewebfonts.com/icon </metadata>
<g><g transform="translate(0.000000,511.000000) scale(0.100000,-0.100000)"><path d="M318.6,4143.1c-76.7-40.3-117-76.7-161.1-147.7l-57.5-94V110v-3791.5l57.5-92.1c42.2-69,86.3-109.3,161.1-147.7l101.7-53.7H5000h4579.7l101.6,53.7c74.8,38.4,118.9,78.6,161.1,147.7l57.5,92.1V110v3791.5l-57.5,94c-44.1,71-84.4,107.4-161.1,147.7l-105.5,51.8H5000H424.1L318.6,4143.1z M9104.1,110v-3279.5H5000H895.9V110v3279.5H5000h4104.1V110z"/><path d="M1317.8,110v-2454.8h402.7h402.7V110v2454.8h-402.7h-402.7V110z"/><path d="M2545.2,934.7V-695.5h402.7h402.7V934.7v1630.1h-402.7h-402.7V934.7z"/><path d="M4194.5,934.7V-695.5h402.7H5000V934.7v1630.1h-402.7h-402.7V934.7z"/><path d="M5421.9,934.7V-695.5h402.7h402.7V934.7v1630.1h-402.7h-402.7V934.7z"/><path d="M6649.3,934.7V-695.5h402.7h402.7V934.7v1630.1h-402.7h-402.7V934.7z"/><path d="M7876.7,110v-2454.8h402.7h402.7V110v2454.8h-402.7h-402.7V110z"/><path d="M2545.2-1942.1v-402.7h402.7h402.7v402.7v402.7h-402.7h-402.7V-1942.1z"/><path d="M4194.5-1942.1v-402.7h402.7H5000v402.7v402.7h-402.7h-402.7V-1942.1z"/><path d="M5421.9-1942.1v-402.7h402.7h402.7v402.7v402.7h-402.7h-402.7V-1942.1z"/><path d="M6649.3-1942.1v-402.7h402.7h402.7v402.7v402.7h-402.7h-402.7V-1942.1z"/></g></g>
</svg>