/* XPM */
static char * aggscamb_xpm[] = {
/* width height ncolors chars_per_pixel */
"32 32 13 1",
/* colors */
" 	c None",
".	c grey50",
"X	c grey",
"o	c white",
"O	c black",
"+	c blue4",
"@	c blue",
"#	c cyan",
"$	c cyan4",
"%	c green",
"&	c green4",
"*	c gold4",
"=	c yellow",
/* pixels */
"    ..............              ",
"   .XXXXXXXXXXXXX.              ",
"  .ooooooooooooo..              ",
"  .o..........oX..              ",
"  .o.OOOOOOOO+oX..              ",
"  .o.O@@@@@@@+oX..              ",
"  .o.O@#@@@@@+oX..              ",
"  .o.O@#@@@@@+oX..              ",
"  .o.O@@@@@@@+oX..              ",
"  .o.O@@@@@@@+oX..              ",
"  .o.+++++++++o..............   ",
"  .ooooooooooo.XXXXXXXXXXXXX.   ",
"  .XXXXXXXXXX.ooooooooooooo..   ",
"  .OOOOOOOOOO.o..........oX..   ",
" .............o.OOOOOOOO.oX..   ",
".oooooooooooo.o.O$$$$$$$.oX..   ",
".oXXXXXXXXX...o.O$#$$$$$.oX..   ",
".oX%%XXXXXXOO.o.O$#$$$$$.oX..   ",
".oX&&XXXXXXXX.o.O$$$$$$$.oX..   ",
"..............o.O$$$$$$$.oX..   ",
"     OO      .o..........oX..   ",
"     .X      .ooooooooooooX..   ",
"     .X      .XXXXXXXXXXXXX.O.. ",
"     .X      .OOOOOOOOOOOOOO..X ",
"     .X     .................X. ",
".O..****O...ooooooooooooooooo.. ",
"XOXX*o=*OXX.oXXXXXXXXX......X.. ",
"OOOO*o=*OOO.oX%%XXXXXXOOOOOOX.. ",
"           .oX&&XXXXXXXXXXXXX.. ",
"           ...................  ",
"                                ",
"                                "};
