/* XPM */
static char *network2[] = {
/* width height ncolors chars_per_pixel */
"32 32 4 1",
/* colors */
"` c #000000",
"a c #C0C0C0",
"b c #808080",
"c c #FFFFFF",
/* pixels */
"`````````````````````a``````````",
"```````````````````cc`cc````````",
"``````````````````cccc`cc```````",
"`````````````````cccccc`cc``````",
"``````````````````cccccc`cc`````",
"`````````````````a`cccccc`cc````",
"`````````````````c``cccccc`ca```",
"```````````````a`c```ccccc``b```",
"``````````````ac`c````ccc`b`b```",
"``````c````````ac`c````c`aa`b```",
"`````ccc``````a`ac`c``a`abb``ca`",
"````ccc`a`````aa`ac`c`c`bbb`ca``",
"```ccc`aac````aaa`ac`cc`bbb`a`a`",
"``ccc`aac`c````aaa`ac`c`bb`a`ab`",
"`ccccc`c`ccc````aaa`ac``b`a`abb`",
"``ccccc`ccc``````aaa`ac``a`abb``",
"`a`ccccccc`a``````aaa`aca`abb```",
"`a``ccccc`aa```````aaa`a`abb````",
"`a```ccc`aaa````````aaa`abb`````",
"`a````c`aaaa`````````aa`bb``````",
"`ac``c`aaaaa```````a``a`b```````",
"``ac`a`aaaaa``````a`````````````",
"```acc`aaaab`````a``````````````",
"``b`aa`aaab`````````````````````",
"```b`a`aab`````aa```````````````",
"````b``ab`````a``a``````````````",
"`````b`b`a```a````a`````````````",
"``````b```a`a``````a````````````",
"```````````a````````a```````````",
"`````````````````````a``````````",
"``````````````````````a`````````",
"```````````````````````a````````"
};
