/* XPM */
static char *network4[] = {
/* width height ncolors chars_per_pixel */
"32 32 12 1",
/* colors */
"` c #000000",
"a c #00FFFF",
"b c #00FF00",
"c c #C0C0C0",
"d c #008080",
"e c #FF0000",
"f c #808080",
"g c #000080",
"h c #FFFFFF",
"i c #FFFF00",
"j c #808000",
"k c #0000FF",
/* pixels */
"````````````````````````fff`````",
"```````````````````````fhhhff```",
"`````````````````````ffhhhhhh```",
"```````````````````ffcfhhhhh````",
"``fffffffff``````ffhcccffhh`c```",
"`fhhhhhhhcf`````fhccbbcccff`ccf`",
"`fh``````cf`````fhhhcceeccccfff`",
"`fh`akkkgcf`````fhcchhccccfffff`",
"`fh`kkkkgcf`````ffcccchhfffffff`",
"`fh`kkkkgcf`````f`ffccccffffff``",
"`fh`gggggcf`````````ffccffff````",
"`fccccccccf```````````ffff``````",
"`f`````````f````````f```````````",
"fhhhhhhhhhhf````````f```````````",
"fhccccc```cf````````f```````````",
"ffffffffffff```ffffjjj`ffjjj`fff",
"``````````````f````ihj```ihj````",
"``````f```````f`````````````````",
"``````f```````f```````````f`````",
"fffffjjj`ffffff``````fffffffff``",
"`````ihj````````````fhhhhhhhcf``",
"````````````````````fh``````cf``",
"````````````````````fh`adddfcf``",
"````````````````````fh`ddddfcf``",
"````````````````````fh`ddddfcf``",
"````````````````````fh`fffffcf``",
"````````````````````fccccccccf``",
"````````````````````f`````````f`",
"```````````````````fhhhhhhhhhhf`",
"```````````````````fhccccc```cf`",
"```````````````````ffffffffffff`",
"````````````````````````````````"
};
