/* XPM */
static char *network3[] = {
/* width height ncolors chars_per_pixel */
"32 32 9 1",
/* colors */
"` c #000000",
"a c #00FFFF",
"b c #00FF00",
"c c #C0C0C0",
"d c #008080",
"e c #808080",
"f c #000080",
"g c #FFFFFF",
"h c #0000FF",
/* pixels */
"```````````eeeeeeeeee```````````",
"``````````egcccccccce```````````",
"``````````ege`````ece```````````",
"``````````ege`adddece```````````",
"``````````ege`ddddece```````````",
"``````````ege`ddddece```````````",
"``````````ege`ddddece```````````",
"``````````egcccccccce```````````",
"``````````eeeeeeeeeee```````````",
"``````````e``````````c``````````",
"`````````eggggggggggge``````````",
"`````````egccccceeeece``````````",
"`````````egcbbcc````ce``````````",
"`````````eeeeeeeeeeeee``````````",
"````````````````````````````````",
"````````````````````````````````",
"````````````````````````````````",
"``eeeeeeeeee```````eeeeeeeeee```",
"`egcccccccce``````egcccccccce```",
"`ege``````ce``````ege``````ce```",
"`ege`ahhhfce``````ege`ahhhfce```",
"`ege`hhhhfce``````ege`hhhhfce```",
"`ege`hhhhfce``````ege`hhhhfce```",
"`ege`fffffce``````ege`fffffce```",
"`egcccccccce``````egcccccccce```",
"`eeeeeeeeeee``````eeeeeeeeeee```",
"`e``````````c`````e``````````c``",
"eggggggggggge````eggggggggggge``",
"egccccceeeece````egccccceeeece``",
"egcbbcc````ce````egcbbcc````ce``",
"eeeeeeeeeeeee````eeeeeeeeeeeee``",
"````````````````````````````````"
};
