/* XPM */
static char * pc6_xpm[] = {
/* width height ncolors chars_per_pixel */
"32 32 12 1",
/* colors */
" 	c black",
".	c #808080",
"X	c #C0C0C0",
"o	c white",
"O	c navy",
"+	c blue",
"@	c cyan",
"#	c #008080",
"$	c green",
"%	c #008000",
"&	c #808000",
"*	c yellow",
/* pixels */
"    ..............              ",
"   .XXXXXXXXXXXXX.              ",
"  .ooooooooooooo..              ",
"  .o..........oX..              ",
"  .o.        OoX..              ",
"  .o. +++++++OoX..              ",
"  .o. +@+++++OoX..              ",
"  .o. +@+++++OoX..              ",
"  .o. +++++++OoX..              ",
"  .o. +++++++OoX..              ",
"  .o.OOOOOOOOOo..............   ",
"  .ooooooooooo.XXXXXXXXXXXXX.   ",
"  .XXXXXXXXXX.ooooooooooooo..   ",
"  .          .o..........oX..   ",
" .............o.        .oX..   ",
".oooooooooooo.o. #######.oX..   ",
".oXXXXXXXXX...o. #@#####.oX..   ",
".oX$$XXXXXX  .o. #@#####.oX..   ",
".oX%%XXXXXXXX.o. #######.oX..   ",
"..............o. #######.oX..   ",
"             .o..........oX..   ",
"     .X      .ooooooooooooX..   ",
"     .X      .XXXXXXXXXXXXX. .. ",
"     .X      .              ..X ",
"     .X     .................X. ",
". ..&&&& ...ooooooooooooooooo.. ",
"X XX&o*& XX.oXXXXXXXXX......X.. ",
"    &o*&   .oX$$XXXXXX      X.. ",
"           .oX%%XXXXXXXXXXXXX.. ",
"           ...................  ",
"                                ",
"                                "};
