/* XPM */
static char * mondadori_xpm[] = {
/* width height num_colors chars_per_pixel */
"108 67 79 1",
/* colors */
" 	c white",
".	c #efefef",
"X	s background	c None",
"o	c #f7f7f7",
"O	c #520000",
"+	c #cea5a5",
"@	c #e7e7e7",
"#	c #9c7373",
"$	c #730000",
"%	c #6b0000",
"&	c #c6c6c6",
"*	c #8c2929",
"=	c #cecece",
"-	c #9c8484",
";	c #ceadad",
":	c #ced6d6",
">	c #943939",
",	c #946363",
"<	c #dedede",
"1	c #7b1010",
"2	c #b5b5b5",
"3	c #d6d6d6",
"4	c #730800",
"5	c #845a5a",
"6	c #d6b5b5",
"7	c #b5b5bd",
"8	c #c6bdbd",
"9	c #949494",
"0	c #efd6d6",
"q	c #b57b84",
"w	c #bdbdbd",
"e	c #bdbdb5",
"r	c #a56363",
"t	c #844242",
"y	c #732121",
"u	c #adadad",
"i	c #8c5252",
"p	c #b57b7b",
"a	c #843131",
"s	c #a5a5a5",
"d	c #7b7373",
"f	c #847b7b",
"g	c #d6dede",
"h	c #bddede",
"j	c #efe7e7",
"k	c #9c4a4a",
"l	c #842121",
"z	c #736b6b",
"x	c #9c5252",
"c	c #c69494",
"v	c #c69c9c",
"b	c #ad7373",
"n	c #945a5a",
"m	c #6b6b6b",
"M	c #8c8c8c",
"N	c #deb5c6",
"B	c #734242",
"V	c #737b7b",
"C	c #734a4a",
"Z	c #6b3131",
"A	c #848484",
"S	c #c68c8c",
"D	c #631010",
"F	c #efdede",
"G	c #e7cece",
"H	c #8c3131",
"J	c #632929",
"K	c #181010",
"L	c black",
"P	c #212118",
"I	c #5a5a5a",
"U	c #100808",
"Y	c #4a4242",
"T	c #292929",
"R	c #524a4a",
"E	c #292121",
"W	c #313131",
"Q	c #4a3939",
"!	c #6b6363",
/* pixels */
"  ............................XXXXXXXXXXXXXXXXXXXXXXXXXXXXXXXXXXXXXXXXXXXXXXXXXXXXXXXXXXXXXXXXXXXXXXXXXXXXXX",
"........oo   ooo................oXXXXXXXXXXXXXXXXXXXXXXXXXXXXXXXXXXXXXXXXXXXXXXXXXXXXXXXXXXXXXXXXXXXXXXXXXXX",
"....XXXXXo........................ooXXXXXXXXXXXXXXXXXXXXXXXXXXXXXXXXXXXXXXXXXXXXXXXXXXXXXXXXXXXXXXXXXXXXXXXX",
"XXXXXooo.............................oXXXXXXXXXXXXXXXXXXXXXXXXXXXXXXXXXXXXXXXXXXXXXXXXXXXXXXXXXXXXXXXXXXXXXX",
"XXXo......o.........oooo...............XXXXXXXXXXXXXXXXXXXXXXXXXXXXXXXXXXXXXXXXXXXXXXXXXXXXXXXXXXXXXXXXXXXXX",
"oo......XXo......XXXXX.....o.............XXXXXXXXXXXXXXXXXXXXXXXXXXXXXXXXXXXXXXXXXXXXXXXXXXXXXXXXXXXXXXXXXXX",
"....oXXXX.....oXXXXXX....oX...............oXXXXXXXXXXXXXXXXXXXXXXXXXXXXXXXXXXXXXXXXXXXXXXXXXXXXXXXXXXXXXXXXX",
"...XXXXo.....XXXXXXX....oXX...o.............XXXXXXXXXXXXXXXXXXXXXXXXXXXXXXXXXXXXXXXXXXXXXXXXXXXXXXXXXXXXXXXX",
"ooXXXoo...oXXXXXXXX...XXXXo...X..oXX.........XXXXXXXXXXXXXXXXXXXXXXXXXXXXXXXXXXXXXXXXXXXXXXXXXXXXXXXXXXXXXXX",
"XXXXo....XXXXXXXo....XXXXX..ooX...XXo..........XXXXXXXXXXXXXXXXXXXXXXXXXXXXXXXXXXXXXXXXXXXXXXXXXXXXXXXXXXXXX",
"XXXo....XXXXXXXo....XXXXXo..XXXo..XXX..........oXXXXXO+@XXXXXXXXXXXXXXXXXXXXXXXXXXXXXXXXXXXXXXXXXXXXXXXXXXXX",
"XXo....XXXXXXXX....XXXXXX..oXXXo..XXXo..........XXX##$%&@@XXXXXXXXXXXXXXXXXXXXXXXXXXXXXXXXXXXXXXXXXXXXXXXXXX",
"....oXXXXXXXXX...XXXXXXXo..oXXXX..XXXX.... ......XX$$$$*==oXXXXXXXXXXXXXXXXXXXXXXXXXXXXXXXXXXXXXXXXXXXXXXXXX",
"....oXXXXXXXX...oXXXXXXXo..XXXXX..XXXXX... o.....X*$$$$%--@XXXXXXXXXXXXXXXXXXXXXXXXXXXXXXXXXXXXXXXXXXXXXXXXX",
".......oXXX....XXXXXXXXX..oXXXXX..XXXXX.... .....;$$$$$$%%:oXXXXXXXXXXXXXXXXXXXXXXXXXXXXXXXXXXXXXXXXXXXXXXXX",
"..oo..........oXXXXXXXoo..XXXXXX..XXXXX.... o... >$$$$$$$$,<XXXXXXXXXXXXXXXXXXXXXXXXXXXXXXXXXXXXXXXXXXXXXXXX",
"ooXXXoo.......XXXXXXXX...oXXXXXX..XXXXXoo..  ..o#%$$$$$$$$12.XXXXXXXXXXXXXXXXXXXXXXXXXXXXXXXXXXXXXXXXXXXXXXX",
"XXXXXXXXo.......oXXXXo...XXXXXXX..XXXXXXX..  oo34$$$$$$$$$%53XXXXXXXXXXXXXXXXXXXXXXXXXXXXXXXXXXXXXXXXXXXXXXX",
"XXXXXXXXo..........oXo...XXXXXXX..XXXXXXX..    6$$$$$$$$$$$%7.XXXXXXXXXXXXXXXXXXXXXXXXXXXXXXXXXXXXXXXXXXXXXX",
"XXXXXXXX..oXXXo.........XXXXXXXo..XXXXXXX..o   O$$$$$$$$$$$$>=ooXXXXXXXXXXXXXXXXXXXXXXXXXXXXXXXXXXXXXXXXXXXX",
"XXXXXXX...XXXXXXX........oXXXXXo..XXXXXXX..o 118$$$$$$$$$$$$%9@@XXXXXXXXXXXXXXXXXXXXXXXXXXXXXXXXXXXXXXXXXXXX",
"XXXXXXX..oXXXXXXXXXX.......oXXX...XXXXXXXo..0qqw4$$$$$$$$$$$$%==oXXXXXXXXXXXXXXXXXXXXXXXXXXXXXXXXXXXXXXXXXXX",
"XXXXX....XXXXXXXXXXo..ooo.........XXXXXXXo. Oee&,%$$$$$$$$$$$$55<XXXXXXXXXXXXXXXXXXXXXXXXXXXXXXXXXXXXXXXXXXX",
"XXXXo...oXXXXXXXXXX...XXXXo.......XXXXXXXo.rt==3@y$$$$$$$$$$$$%%&.XXXXXXXXXXXXXXXXXXXXXXXXXXXXXXXXXXXXXXXXXX",
"XXXX....XXXXXXXXXXX..oXXXXXXooo.....oXXXX.o*o&&..u$$$$$$$$$$$$%%i:XXXXXXXXXXXXXXXXXXXXXXXXXXXXXXXXXXXXXXXXXX",
"XXXX...XXXXXXXXXX....XXXXXXXXXo........oo ip&33XXXy$$$$$$$$$$$$$$9.XXXXXXXXXXXXXXXXXXXXXXXXXXXXXXXXXXXXXXXXX",
"ooX..ooXXXXXXXXXX...oXXXXXXXXXo..Xoo.....3%:=XXXXXo%%$$$$$$$$$$$$a:oXXXXXXXXXXXXXXXXXXXXXXXXXXXXXXXXXXXXXXXX",
".....ooXXXXXXXXXo...XXXXXXXXXXo..XXXXo...p4&=XXXXX@rr$$$$$$$$$$$$%s<XXXXXXXXXXXXXXXXXXXXXXXXXXXXXXXXXXXXXXXX",
".....ooXXXXXXXXX...oXXXXXXXXXX..oXXXXXXXXO$d&XXXXXXXXO$$$$$$$$$$$$1eooXXXXXXXXXXXXXXXXXXXXXXXXXXXXXXXXXXXXXX",
"oo.......XXXXXXo...oXXXXXXXXXX..XXXXXXX%%$$%uXXXXXXXX=%$$$$$$$$$$$%fggXXXXXXXXXXXXXXXXXXXXXXXXXXXXXXXXXXXXXX",
"oo.........ooXX....XXXXXXXXXoo..XXXXXX+$$$$$a::XXXXXX<*$$$$$$$$$$$$%hh.XXXXXXXXXXXXXXXXXXXXXXXXXXXXXXXXXXXXX",
"...oXXXo.........ooXXXXXXXXX....XXXXXXO$$$$$$ssjXXXXXX8%$$$$$$$$$$$$aa=oXXXXXXXXXXXXXXXXXXXXXXXXXXXXXXXXXXXX",
"...oXXXXXX.......ooXXXXXXXXX...oXXXXX>$$$$$$$%%:@XXXXX@-%%$$$$$$$$$$%%s@XXXXXXXXXXXXXXXXXXXXXXXXXXXXXXXXXXXX",
"...XXXXXXXXXXo......oXXXXXXX...XXXXX0$$$$$$$$%%f=XoXXXX&11$$$$$$$$$$$$%:oXXXXXXXXXXXXXXXXXXXXXXXXXXXXXXXXXXX",
"..oXXXXXXXXXXo..........XXXo...XXXXX%$$$$$$$$$$yu<oXXXX.kk%$$$$$$$$$$$$5<XXXXXXXXXXXXXXXXXXXXXXXXXXXXXXXXXXX",
"..XXXXXXXXXXXo..XXXo......o...oXXX66%$$$$$$$$$$%5=XXXXX.XX$$$$$$$$$$$$$1&ooXXXXXXXXXXXXXXXXXXXXXXXXXXXXXXXXX",
"..XXXXXXXXXXX..XXXXXXo........oXXoll$$$$$$$$$$$$%2.XXXX.XX%$$$$$$$$$$$$%z33XXXXXXXXXXXXXXXXXXXXXXXXXXXXXXXXX",
"..XXXXXXXXX....XXXXXXXXXXo......X,##%$$$$$$$$$$$$t=XXXXXyy&%$$$$$$$$$$$$%ss.XXXXXXXXXXXXXXXXXXXXXXXXXXXXXXXX",
"..XXXXXXXXX...oXXXXXXXXXXX......o%&&i$$$$$$$$$$$$%s@@X.8kk=&%$$$$$$$$$$$$ii=oXXXXXXXXXXXXXXXXXXXXXXXXXXXXXXX",
"ooXXXXXXXXo...XXXXXXXXXXX...XXX.x822u4$$$$$$$$$$$$1::o l&&&g,$$$$$$$$$$$$%%=@XXXXXXXXXXXXXXXXXXXXXXXXXXXXXXX",
"XXXXXXXXXX....XXXXXXXXXXX..oXXXoa&ww<i%$$$$$$$$$$$$##<ck==3o<%$$$$$$$$$$$$$1&oXXXXXXXXXXXXXXXXXXXXXXXXXXXXXX",
"XXXXXXXXXX...XXXXXXXXXXXo..XXXX1=&33XXy$$$$$$$$$$$$44u%g&&@XXv%%$$$$$$$$$$$$-<XXXXXXXXXXXXXXXXXXXXXXXXXXXXXX",
"XXXXXXXXX....XXXXXXXXXXX..oXXXqb==@@XX;$$$$$$$$$$$$%%5-2<<oXXo11$$$$$$$$$$$$%:.XXXXXXXXXXXXXXXXXXXXXXXXXXXXX",
"...oXXXXX..ooXXXXXXXXX....XXXXO3&<XXXXX44$$$$$$$$$$$$49w..XXXXbb$$$$$$$$$$$$$a3XXXXXXXXXXXXXXXXXXXXXXXXXXXXX",
".....oooo..XXXXXXXXXXo...oXXnntw=@XXXXXXXO$$$$$$$$$$$mM3XXXXXXXX%$$$$$$$$$$$$4u..XXXXXXXXXXXXXXXXXXXXXXXXXXX",
"XX........oXXXXXXXXXX....XXN$$nu=XXXXXXoo-$$$$$$$$$BBVuoXXXXXXXX%$$$$$$$$$$$$$C::oXXXXXXXXXXXXXXXXXXXXXXXXXX",
"XXXXo......ooXXXXXXX....XXXy$$C9=XXXXXXXX@%$$$$$$$$mm93XXXXXXXXX%$$$$$$$$$$$$$%##@XXXXXXXXXXXXXXXXXXXXXXXXXX",
"XXXXXXX........XXXXo..ooXXy$$$%9=XXXXXXXXXn%$$$$$$ZAAwoXXXXXXXXX%$$$$$$$$$$$$$$%%9.XXXXXXXXXXXXXXXXXXXXXXXXX",
"XXXXXXX..oo......oo...XXX1$$$$%98XXXXXXXX.<1$$$$$1m99<XXXXXXXXbb$$$$$$$$$$$$$$$$$$S.XXXXXXXXXXXXXXXXXXXXXXXX",
"XXXXXoo..XXXXoo.....o vvD$$$$$$%u.XXXXXoo..-%$$$$BA&&XXXXXXXXF%%$$$$$$$$$$$$$$$$$$%v.XXXXXXXXXXXXXXXXXXXXXXX",
"XXXXX...oXXXXXXX... ;%%%$$$$$$$$%gooXXX....X%$$$4Vs@@XXXXXXXN4$$$$$$$$$$$$$$$$$$$$$$%33XXXXXXXXXXXXXXXXXXXXX",
"XXXXo...XXXXXXjprkkO%$$$$$$$$$$$$%>>p.@...XX<$$$mM&XXXXX++SbO$$$$$$$$$$$$$$$$$$$$$$$$%%yqSGGXXXXXXXXXXXXXXXX",
"XXXX....XXXXXXo<=777u9VVVdddddVVVA997w3..oXXXHHyVu.XXXXX,,**JyDD%D%$%%%%%$$$$$$$$$$$$$$$4444$.oXXXXXXXXXXXXX",
"XXXX...XXXXXXX@<&&&w22uusssssssssu22uw3..XXXXggu9<XXXXXXXX@=7uuuusuuuuuuuuuuuuuuuuuuuuuu27==:3.XXXXXXXXXXXXX",
"XXX....XXXXXX....ooo.@<<<<..@@<<<<<<<@.XXXXX.@@33XXXXXXXXXo@@@@@@@@@@@@@@@@@@@@@@@@@@@@@@@....XXXXXXXXXXXXXX",
"XXX..ooXXXX....     .....XXXXXXo......oXXXXo....XXXXXXXXXXXXXXXXXXXXXXXXXXXXXXXXXXXXXXXXXXXXXXXXXXXXXXXXXXXX",
"XXo..XXXXX....o  XX...ooXXXXXXXXo.........o....XXXXXXXXXXXXXXXXXXXXXXXXXXXXXXXXXXXXXXXXXXXXXXXXXXXXXXXXXXXXX",
"XX...XXXX....o o ==&oXXXXXXXXXXXo... o.......XXXXXXXXXXXXXXXXXXXXXXXXXXXXXXXXXXXXXXXXXXXXXXXXXXXXXXXXXXXXXXX",
"XX..XXXX...oo . KKKL=<KKPI.XuuLUIooo@9u@@uM&M999uMXXXXX@33XXX9ss999oXXXo9MM9@o399s99<XXX9s22XXXXXXXXXXXXXXXX",
"....Xoo...o......KKLM<LLL&=uLL32YT@@2LL&&9R@uLLPuVUssoXmLLXoX<LLKMILXXXKE==2L .EEL3dL@@oWL333.XXXXXXXXXXXXXX",
"...oo..........o=UULLYwwLMwLLLuwILVV99LLLMQ<wLLTu3LYY=uELL!3o.LLEuuLYY9L=22&KT3TTL&sLss<QL22w.XXXXXXXXXXXXXX",
"..............XX9VVRLd99LPwLLLu3mL!!AsmLLKW3&LLTsoLUUsW.EELs.oLLWs3PQQPLs22@TEuQQLLLd99=YLuu&oXXXXXXXXXXXXXX",
"..........oXXXXXL33dL!MMLPuTLLs3ILmmV23MMLE&&LLTs<LQQdKULLLQ3oLLEs&UWWdLsww@PE9WWL&WLuu3YLuu&XXXXXXXXXXXXXXX",
"........oXXXXX.IWuu&L9MMKPAMUUm2WWMMm9<<<mP22LLEMdP99L2@..LLV9LLP9ML&&sKQsswL9MTTL99LPP=YLss&oXXXXXXXXXXXXXX",
"..............<s9VV&MuAAA!!ussQm92uuM9=XX<E&299RmM&AAAw<XX9dIQ!!RPR=ss&=YTT92u9ssVA&MVVwsAAA=oXXXXXXXXXXXXXX",
"ooo............@=&&=3=33=22&33=33=<<@3<XXo.<@<<&&3===33@XX@&w3<<&3@=33.o@33===<<<w2=3www=w22=.XXXXXXXXXXXXXX",
"XXXXX............XX.@@@@@@.XXXXXXXXXXXXXXXXXXXXXXXXXXXXXXXXXX XXXXXXXXXXXXXXXXXXXXXXoXXXXXXXXXXXXXXXXXXXXXXX"};
